<svg width="98" height="24" viewBox="0 0 98 24" fill="none" xmlns="http://www.w3.org/2000/svg">
<path d="M6.94014 11.8911L11.005 7.00079C11.1671 6.79572 11.2526 6.57772 11.2615 6.34782C11.2693 6.11901 11.2005 5.92041 11.0539 5.75422C10.9073 5.58799 10.6953 5.50488 10.4188 5.50488C10.2722 5.50488 10.129 5.53726 9.99132 5.59989C9.85251 5.66356 9.72594 5.77473 9.61268 5.9323L5.741 10.6974L1.79713 5.78983C1.60173 5.59989 1.3652 5.50488 1.08875 5.50488C0.812271 5.50488 0.600213 5.58799 0.453657 5.75422C0.307068 5.92041 0.229347 6.11469 0.221572 6.33596C0.212719 6.55828 0.298215 6.77197 0.478061 6.97704L4.47855 11.917L0.257117 17.0447C0.077238 17.2509 -0.00825866 17.4646 0.000627472 17.6858C0.00840284 17.9082 0.089456 18.0981 0.244898 18.2557C0.399229 18.4144 0.606877 18.4932 0.867809 18.4932C1.16092 18.4932 1.38075 18.3982 1.52731 18.2082L5.66884 13.101L9.68596 18.0658C9.81588 18.2244 9.94245 18.3356 10.0646 18.3982C10.1867 18.4619 10.3455 18.4932 10.5409 18.4932C10.7197 18.4932 10.8951 18.4306 11.0661 18.3032C11.2371 18.1769 11.3381 18.0032 11.3714 17.7808C11.4036 17.5596 11.3137 17.3221 11.1027 17.0685L6.94014 11.8911Z" fill="#858489"/>
<path d="M22.1781 6.34436C21.1723 5.7847 20.026 5.50488 18.7394 5.50488C17.4527 5.50488 16.3021 5.7847 15.2885 6.34436C14.275 6.90399 13.4786 7.67349 12.8995 8.65286C12.3203 9.63223 12.0308 10.7515 12.0308 12.0107C12.0308 13.2699 12.3203 14.3658 12.8995 15.3452C13.4786 16.3246 14.275 17.0941 15.2885 17.6537C16.3021 18.2134 17.4516 18.4932 18.7394 18.4932C20.0271 18.4932 21.1723 18.2134 22.1781 17.6537C23.184 17.0941 23.9792 16.3246 24.5672 15.3452C25.154 14.3658 25.448 13.255 25.448 12.0107C25.4315 10.7515 25.1342 9.63223 24.5551 8.65286C23.9759 7.67349 23.184 6.90399 22.1781 6.34436ZM22.9865 14.5058C22.5675 15.2371 21.9884 15.8116 21.249 16.2313C20.5087 16.651 19.6717 16.8609 18.7394 16.8609C17.807 16.8609 16.969 16.651 16.2297 16.2313C15.4893 15.8116 14.9057 15.2371 14.4801 14.5058C14.0534 13.7755 13.8406 12.9434 13.8406 12.0107C13.8406 11.078 14.0534 10.2427 14.4801 9.50397C14.9057 8.76626 15.4893 8.1865 16.2297 7.76676C16.969 7.34702 17.8059 7.13719 18.7394 7.13719C19.6728 7.13719 20.5087 7.34702 21.249 7.76676C21.9884 8.1865 22.5675 8.76521 22.9865 9.50397C23.4045 10.2427 23.614 11.078 23.614 12.0107C23.614 12.9434 23.4045 13.7755 22.9865 14.5058Z" fill="#858489"/>
<path d="M49.7097 6.34436C48.7038 5.7847 47.5577 5.50488 46.2709 5.50488C44.9843 5.50488 43.8337 5.7847 42.8203 6.34436C41.8066 6.90399 41.0104 7.67349 40.4312 8.65286C39.852 9.63223 39.5625 10.7515 39.5625 12.0107C39.5625 13.2699 39.852 14.3658 40.4312 15.3452C41.0104 16.3246 41.8066 17.0941 42.8203 17.6537C43.8337 18.2134 44.9834 18.4932 46.2709 18.4932C47.5587 18.4932 48.7038 18.2134 49.7097 17.6537C50.7156 17.0941 51.5108 16.3246 52.0988 15.3452C52.6856 14.3658 52.9796 13.255 52.9796 12.0107C52.9632 10.7515 52.666 9.63223 52.0867 8.65286C51.5075 7.67349 50.7156 6.90399 49.7097 6.34436ZM50.5183 14.5058C50.0991 15.2371 49.5199 15.8116 48.7806 16.2313C48.0403 16.651 47.2033 16.8609 46.2709 16.8609C45.3385 16.8609 44.5005 16.651 43.7612 16.2313C43.0209 15.8116 42.4374 15.2371 42.0117 14.5058C41.5851 13.7755 41.3724 12.9434 41.3724 12.0107C41.3724 11.078 41.5851 10.2427 42.0117 9.50397C42.4374 8.76626 43.0209 8.1865 43.7612 7.76676C44.5005 7.34702 45.3375 7.13719 46.2709 7.13719C47.2046 7.13719 48.0403 7.34702 48.7806 7.76676C49.5199 8.1865 50.0991 8.76521 50.5183 9.50397C50.9361 10.2427 51.1455 11.078 51.1455 12.0107C51.1455 12.9434 50.9361 13.7755 50.5183 14.5058Z" fill="#858489"/>
<path d="M67.3256 0C67.0511 0 66.8264 0.0823601 66.65 0.24708C66.4722 0.4118 66.3843 0.635326 66.3843 0.917722V7.8358C65.8535 7.09884 65.1537 6.50632 64.285 6.05923C63.416 5.61215 62.4421 5.38859 61.365 5.38859C60.1255 5.38859 59.0154 5.67523 58.0347 6.24747C57.0529 6.82076 56.2764 7.60049 55.706 8.58881C55.1346 9.5771 54.8494 10.6916 54.8494 11.9302C54.8494 13.1688 55.1424 14.3068 55.7301 15.2951C56.3169 16.2834 57.1176 17.0642 58.1314 17.6364C59.1448 18.2097 60.2866 18.4953 61.5581 18.4953C62.8292 18.4953 63.9426 18.2129 64.9485 17.6482C65.9531 17.0835 66.7496 16.3112 67.3376 15.3304C67.9244 14.3506 68.2338 13.2479 68.2668 12.0243V0.917722C68.2668 0.635326 68.1779 0.4118 68.0012 0.24708C67.8234 0.0823601 67.5987 0 67.3256 0ZM65.793 14.448C65.3664 15.186 64.7871 15.77 64.0557 16.2011C63.3239 16.6332 62.4905 16.8481 61.5581 16.8481C60.6257 16.8481 59.8119 16.6332 59.0726 16.2011C58.3319 15.77 57.7452 15.1849 57.3107 14.448C56.8765 13.711 56.6593 12.8714 56.6593 11.9302C56.6593 10.9889 56.8765 10.1697 57.3107 9.42414C57.7452 8.67969 58.3319 8.09465 59.0726 7.67108C59.8119 7.24752 60.641 7.03576 61.5581 7.03576C62.4751 7.03576 63.3229 7.24752 64.0557 7.67108C64.7871 8.09465 65.3664 8.67865 65.793 9.42414C66.2187 10.1697 66.4327 11.005 66.4327 11.9302C66.4327 12.8554 66.2187 13.711 65.793 14.448Z" fill="#858489"/>
<path d="M80.4349 6.35602C79.429 5.78895 78.2904 5.50488 77.0202 5.50488C75.75 5.50488 74.6069 5.78895 73.5935 6.35602C72.5801 6.92412 71.7794 7.69682 71.1923 8.67619C70.6046 9.65556 70.3115 10.7674 70.3115 12.0107C70.3115 13.254 70.5967 14.3425 71.1681 15.3219C71.7385 16.3012 72.5154 17.075 73.4971 17.6421C74.4775 18.2102 75.5877 18.4932 76.8271 18.4932C78.001 18.4932 79.0506 18.2335 79.9762 17.712C80.7276 17.2891 81.3496 16.7401 81.8465 16.0712V17.4905C81.8465 17.7555 81.9344 17.9685 82.1121 18.1318C82.2885 18.295 82.5133 18.3766 82.7877 18.3766C83.0618 18.3766 83.2856 18.295 83.4633 18.1318C83.6401 17.9685 83.7289 17.7555 83.7289 17.4905V12.0107C83.7123 10.7674 83.4107 9.65556 82.824 8.67619C82.2359 7.69682 81.4394 6.92307 80.4349 6.35602ZM79.5178 16.2313C78.7863 16.651 77.9526 16.8609 77.0202 16.8609C76.0878 16.8609 75.274 16.651 74.5347 16.2313C73.7941 15.8116 73.2074 15.2328 72.7732 14.4941C72.3387 13.7564 72.1214 12.9286 72.1214 12.0107C72.1214 11.0928 72.3387 10.247 72.7732 9.51563C73.2074 8.78534 73.7941 8.20663 74.5347 7.77843C75.274 7.35127 76.1032 7.13719 77.0202 7.13719C77.9373 7.13719 78.785 7.35127 79.5178 7.77843C80.2496 8.20663 80.8285 8.78534 81.2552 9.51563C81.6809 10.247 81.8949 11.078 81.8949 12.0107C81.8949 12.9434 81.6809 13.7553 81.2552 14.4941C80.8285 15.2328 80.2496 15.8116 79.5178 16.2313Z" fill="#858489"/>
<path d="M96.7842 5.60491C96.251 5.38573 95.8632 5.52686 95.6208 6.02834L91.1114 15.6772L86.3884 6.00482C86.275 5.76956 86.113 5.61667 85.9039 5.5461C85.6935 5.47554 85.4678 5.49586 85.2253 5.60491C84.9829 5.71504 84.8209 5.87221 84.7405 6.07538C84.6592 6.2796 84.6755 6.49881 84.7892 6.73403L90.1928 17.6018C90.196 17.6082 90.2006 17.6136 90.2039 17.62L87.7938 22.777C87.5514 23.2945 87.7046 23.6709 88.2541 23.9061C88.4152 23.9681 88.5616 24.0002 88.6906 24.0002C88.9967 24.0002 89.2313 23.8195 89.3933 23.4591L97.2445 6.71051C97.4869 6.19299 97.3327 5.82517 96.7842 5.60491Z" fill="#858489"/>
<path d="M32.4344 7.96579C33.6403 7.96579 34.6171 7.0202 34.6171 5.85275C34.6171 4.6853 33.6403 3.73975 32.4344 3.73975C31.2283 3.73975 30.2515 4.6853 30.2515 5.85275C30.2515 7.0202 31.2283 7.96579 32.4344 7.96579Z" fill="#858489"/>
<path d="M31.1718 11.0107L31.2041 10.9853C31.5772 10.6896 31.6321 10.157 31.3263 9.79586L27.9218 5.77071C27.6163 5.40954 27.0663 5.35649 26.6932 5.65221L26.6611 5.67763C26.288 5.97336 26.2332 6.50587 26.5387 6.86706L29.9431 10.8922C30.2488 11.2534 30.7987 11.3064 31.1718 11.0107Z" fill="#858489"/>
<path d="M38.2093 5.67519L38.1773 5.64975C37.8042 5.35405 37.2541 5.40711 36.9486 5.76827L33.5441 9.79343C33.2386 10.1546 33.2932 10.6871 33.6663 10.9828L33.6986 11.0083C34.0717 11.304 34.6219 11.2509 34.9273 10.8898L38.3318 6.8646C38.6373 6.50343 38.5824 5.97092 38.2093 5.67519Z" fill="#858489"/>
<path d="M37.8443 17.0553L33.1382 11.4917C32.9602 11.2815 32.7017 11.1737 32.4417 11.1748C32.182 11.1737 31.9236 11.2815 31.7455 11.4917L27.0154 17.0828C26.7022 17.4526 26.7589 17.9978 27.1411 18.2999C27.523 18.6031 28.0862 18.5482 28.3982 18.1784L32.3545 13.5012C32.3992 13.4484 32.4832 13.4484 32.5279 13.5012L36.4846 18.1784C36.8031 18.5546 37.3817 18.6042 37.7636 18.283C38.1324 17.9724 38.1543 17.4209 37.8443 17.0543V17.0553Z" fill="#858489"/>
</svg>
