<svg width="106" height="24" viewBox="0 0 106 24" fill="none" xmlns="http://www.w3.org/2000/svg">
<g clip-path="url(#clip0_1_12015)">
<path d="M3.49751 8.2128C2.7721 8.31647 2.12443 8.47188 1.60628 8.70503C1.08813 8.93824 0.673586 9.24913 0.414513 9.63776C0.129531 10.0263 0 10.5445 0 11.1922C0 11.9694 0.285001 12.6171 0.829059 13.1353C1.37312 13.6534 2.07259 13.9124 2.87573 13.9124C3.31615 13.9124 3.65295 13.8866 3.91202 13.8088C4.1711 13.7311 4.40427 13.6534 4.66335 13.5498C4.92242 13.4202 5.12968 13.2907 5.31104 13.1871C5.46648 13.0575 5.64783 12.928 5.85506 12.7725V13.6793H8.75672V7.77237C8.75672 6.76197 8.39403 5.98478 7.64271 5.49253C6.91733 5.00029 5.72556 4.74121 4.1193 4.74121C3.47161 4.74121 2.82392 4.79302 2.17624 4.89665C1.52855 5.00028 1.0622 5.10392 0.777225 5.18164V7.28014H1.0363C1.47673 7.09879 1.91717 6.94332 2.38351 6.83971C2.84984 6.7361 3.23844 6.65836 3.60115 6.65836C4.35246 6.65836 4.92242 6.76197 5.31104 6.94332C5.69965 7.12472 5.88099 7.46148 5.88099 7.92784V7.97965C5.02607 8.05738 4.24883 8.13512 3.49751 8.2128ZM5.85506 11.4513C5.64783 11.6585 5.38877 11.788 5.1297 11.9176C4.87062 12.0212 4.61155 12.073 4.35247 12.073C3.88613 12.073 3.54934 11.9953 3.31617 11.8398C3.083 11.6844 2.95346 11.3994 2.95346 11.0108C2.95346 10.7258 3.03119 10.5186 3.16073 10.3372C3.29027 10.1818 3.49751 10.0523 3.75659 9.97452C4.04157 9.87091 4.35246 9.8191 4.66335 9.76724C4.97423 9.74136 5.36284 9.68956 5.85506 9.63776V11.4513Z" fill="#858489"/>
<path d="M18.6804 13.7051V1.68408H15.7788V5.36295C15.3643 5.15569 15.0016 5.02615 14.6907 4.92252C14.3798 4.81889 13.9653 4.76706 13.499 4.76706C12.9549 4.76706 12.4627 4.8707 11.9705 5.10387C11.4782 5.31113 11.0896 5.62201 10.7268 5.9847C10.3642 6.39926 10.0533 6.89149 9.84599 7.43553C9.63877 7.97963 9.53516 8.65321 9.53516 9.40452C9.53516 10.7776 9.84604 11.8657 10.4678 12.6947C11.0896 13.5238 11.9186 13.9124 13.0067 13.9124C13.3176 13.9124 13.6026 13.8865 13.8098 13.8347C14.0431 13.7829 14.2762 13.7051 14.5094 13.6015C14.6907 13.5238 14.898 13.3943 15.1571 13.2388C15.3902 13.0834 15.6234 12.9279 15.8047 12.7725V13.6792H18.6804V13.7051ZM15.0534 11.6843C14.7943 11.788 14.5352 11.8139 14.2762 11.8139C13.6544 11.8139 13.1881 11.6325 12.929 11.2439C12.644 10.8553 12.5145 10.2335 12.5145 9.40452C12.5145 8.6014 12.6958 7.9537 13.0327 7.51327C13.3954 7.07284 13.9135 6.83969 14.613 6.83969C14.7684 6.83969 14.9757 6.86556 15.2089 6.91742C15.442 6.96923 15.6234 7.02103 15.7788 7.07284V11.3217C15.5716 11.4771 15.3384 11.6066 15.0534 11.6843Z" fill="#858489"/>
<path d="M24.0421 10.7773L22.125 5.02588H19.0679L22.384 13.7049H25.5707L28.9127 5.02588H25.9075L24.0421 10.7773Z" fill="#858489"/>
<path d="M32.0479 8.2128C31.3224 8.31647 30.6747 8.47188 30.1566 8.70503C29.6384 8.93824 29.2239 9.24913 28.9649 9.63776C28.6798 10.0263 28.5503 10.5445 28.5503 11.1922C28.5503 11.9694 28.8353 12.6171 29.3793 13.1353C29.9234 13.6534 30.6229 13.9124 31.426 13.9124C31.8664 13.9124 32.2033 13.8866 32.4624 13.8088C32.7214 13.757 32.9546 13.6534 33.2137 13.5498C33.4728 13.4202 33.68 13.2907 33.8614 13.1871C34.0427 13.0834 34.1981 12.928 34.4054 12.7725V13.6793H37.307V7.77237C37.307 6.76197 36.9443 5.98478 36.193 5.49253C35.4417 5.00029 34.2758 4.74121 32.6696 4.74121C32.0219 4.74121 31.3742 4.79302 30.7265 4.89665C30.0789 5.00028 29.6125 5.10392 29.3275 5.18164V7.28014H29.5866C30.0271 7.09879 30.4675 6.94332 30.9338 6.83971C31.4001 6.7361 31.7887 6.65836 32.1514 6.65836C32.9027 6.65836 33.4728 6.76197 33.8614 6.94332C34.2499 7.12472 34.4313 7.46148 34.4313 7.92784V7.97965C33.5764 8.05738 32.7732 8.13512 32.0479 8.2128ZM34.3795 11.4513C34.1723 11.6585 33.9132 11.788 33.6541 11.9176C33.395 12.0212 33.1359 12.073 32.8768 12.073C32.4105 12.073 32.0737 11.9953 31.8406 11.8398C31.6074 11.6844 31.4778 11.3994 31.4778 11.0108C31.4778 10.7258 31.5556 10.5186 31.6851 10.3372C31.8146 10.1818 32.0219 10.0523 32.2809 9.97452C32.566 9.87091 32.8769 9.8191 33.1877 9.76724C33.4986 9.74136 33.8873 9.68956 34.3795 9.63776V11.4513Z" fill="#858489"/>
<path d="M38.6296 5.02613V13.7051H41.5313V7.56506C41.8163 7.38372 42.0753 7.25417 42.3085 7.17644C42.5417 7.09876 42.8007 7.0469 43.0339 7.0469C43.3448 7.0469 43.6039 7.09876 43.7852 7.17644C43.9666 7.25417 44.1221 7.40965 44.2257 7.59099C44.3034 7.74641 44.3552 8.00549 44.407 8.36818C44.4588 8.73088 44.4588 9.0677 44.4588 9.40452V13.7051H47.3864V8.0573C47.3864 6.99509 47.1273 6.19197 46.635 5.62202C46.1428 5.05205 45.3915 4.79297 44.4588 4.79297C43.9147 4.79297 43.3966 4.8966 42.9562 5.10386C42.5158 5.31112 42.0494 5.5961 41.5572 5.98469V5.02613H38.6296Z" fill="#858489"/>
<path d="M53.2654 4.79297C52.5918 4.79297 51.9183 4.87069 51.2965 5.05205C50.6747 5.2334 50.1307 5.49247 49.6643 5.85515C49.1721 6.2179 48.8094 6.71014 48.5244 7.28011C48.2394 7.85008 48.1099 8.57546 48.1099 9.40452C48.1099 10.1817 48.2394 10.8553 48.4985 11.4253C48.7576 11.9952 49.1203 12.4616 49.5866 12.8502C50.0529 13.2388 50.6229 13.4979 51.2447 13.6792C51.8923 13.8606 52.5918 13.9383 53.3691 13.9383C53.7836 13.9383 54.0945 13.9124 54.3535 13.8865C54.6126 13.8606 54.8717 13.7829 55.1567 13.7311C55.3899 13.6793 55.5971 13.6015 55.8303 13.5238C56.0375 13.4461 56.2448 13.3683 56.4003 13.2906V10.959H56.0375C55.9339 11.0626 55.8303 11.1662 55.6748 11.2698C55.5453 11.3735 55.364 11.503 55.1826 11.6067C54.9753 11.7103 54.7422 11.8139 54.4572 11.8916C54.1722 11.9694 53.8613 11.9952 53.4986 11.9952C52.7732 11.9952 52.2033 11.788 51.7628 11.3476C51.3224 10.933 51.1151 10.2594 51.1151 9.40452C51.1151 8.60139 51.3224 7.95369 51.7369 7.46145C52.1514 6.96922 52.7214 6.73601 53.4727 6.73601C53.8095 6.73601 54.0945 6.76194 54.3535 6.83968C54.6126 6.91736 54.8458 6.99509 55.0789 7.12463C55.2862 7.2283 55.4676 7.33191 55.623 7.46145C55.8044 7.59099 55.9339 7.6946 56.0635 7.79821H56.4262V5.49247C55.908 5.25931 55.3899 5.07795 54.8717 4.97433C54.3017 4.84479 53.7836 4.79297 53.2654 4.79297Z" fill="#858489"/>
<path d="M61.5816 4.76709C60.0011 4.76709 58.7836 5.18162 57.9028 6.03654C57.0219 6.89153 56.5815 8.00554 56.5815 9.43044C56.5815 10.8813 57.0478 11.9953 57.9805 12.7725C58.9129 13.5497 60.2604 13.9383 62.0482 13.9383C62.5404 13.9383 62.9291 13.9125 63.2657 13.8606C63.6023 13.8088 63.9395 13.757 64.2503 13.6793C64.5869 13.6016 64.872 13.5238 65.0534 13.4461C65.2606 13.3684 65.4679 13.2907 65.7008 13.213V10.9849H65.39C65.2606 11.0626 65.1049 11.1662 64.8977 11.2958C64.6905 11.3994 64.4833 11.503 64.224 11.6067C63.9652 11.7103 63.6544 11.8139 63.3172 11.8917C62.9806 11.9694 62.6698 11.9953 62.3069 11.9953C61.9182 11.9953 61.5559 11.9694 61.2187 11.8917C60.8821 11.8139 60.597 11.7103 60.3383 11.5548C60.079 11.3994 59.8718 11.1922 59.7161 10.9072C59.5609 10.6481 59.4573 10.3113 59.4316 9.8968H65.8044V8.91227C65.8044 7.59098 65.4421 6.55471 64.7163 5.82931C63.991 5.1039 63.0064 4.76709 61.5816 4.76709ZM59.4831 8.26462C59.5088 7.72052 59.6903 7.30603 60.0011 6.99514C60.312 6.68425 60.7527 6.52884 61.3229 6.52884C61.8667 6.52884 62.2811 6.68425 62.5662 6.96921C62.8249 7.28009 62.9806 7.69465 63.0064 8.26462H59.4831Z" fill="#858489"/>
<path d="M72.4881 5.38885C72.0737 5.18159 71.7108 5.05205 71.3999 4.94842C71.0891 4.84479 70.6747 4.79298 70.2087 4.79298C69.6643 4.79298 69.172 4.8966 68.6798 5.12977C68.1875 5.33703 67.7988 5.64793 67.4364 6.01063C67.0735 6.42513 66.7627 6.91736 66.5555 7.46146C66.3482 8.0055 66.2446 8.67908 66.2446 9.4304C66.2446 10.8035 66.5555 11.8916 67.1771 12.7207C67.7988 13.5497 68.654 13.9383 69.7164 13.9383C70.0273 13.9383 70.3123 13.9124 70.5196 13.8606C70.7525 13.8088 70.9855 13.7311 71.2191 13.6274C71.3999 13.5497 71.6072 13.4202 71.8665 13.2647C72.0995 13.1093 72.333 12.9538 72.5145 12.7984V13.7051H75.4156V1.68408H72.5145V5.38885H72.4881ZM72.4881 11.3217C72.2809 11.4771 72.0222 11.6067 71.7629 11.7103C71.5036 11.8139 71.2448 11.8398 70.9855 11.8398C70.3638 11.8398 69.8973 11.6585 69.6386 11.2699C69.3535 10.8812 69.2241 10.2595 69.2241 9.4304C69.2241 8.62728 69.4056 7.97957 69.7422 7.53914C70.1051 7.09871 70.6232 6.86556 71.3227 6.86556C71.4778 6.86556 71.685 6.89149 71.9186 6.9433C72.1516 6.9951 72.333 7.04691 72.4881 7.09871V11.3217Z" fill="#858489"/>
<path d="M52.3341 19.8969V15.5703H51.4533L50.2874 17.9797L49.0957 15.5703H48.2148V19.8969H48.8107V16.1662L50.0543 18.7051H50.4429L51.7123 16.1662V19.8969H52.3341Z" fill="#858489"/>
<path d="M54.3288 15.5703L52.6965 19.8969H53.3442L53.7847 18.6792H55.6241L56.0646 19.8969H56.7381L55.106 15.5703H54.3288ZM53.966 18.187L54.7173 16.1403L55.4687 18.187H53.966Z" fill="#858489"/>
<path d="M61.1685 15.5703V19.8969H61.7901V18.161L62.0752 17.8761L63.8371 19.8969H64.666L62.5675 17.4874L64.5624 15.5703H63.785L61.7901 17.5652V15.5703H61.1685Z" fill="#858489"/>
<path d="M59.8478 17.5392C60.0287 17.332 60.1065 17.0729 60.1065 16.7361C60.1065 16.503 60.055 16.3216 59.9514 16.1662C59.8478 16.0107 59.7178 15.8812 59.5627 15.8035C59.407 15.6999 59.2255 15.648 59.0183 15.6221C58.8111 15.5962 58.6039 15.5703 58.319 15.5703H57.0754V19.8969H57.7231V18.187H58.4485L59.9772 19.8969H60.806L59.0962 18.0315C59.4328 17.9019 59.6663 17.7465 59.8478 17.5392ZM59.3813 17.1766C59.3292 17.2802 59.2776 17.3838 59.174 17.4615C59.0704 17.5652 58.9411 17.617 58.7854 17.6429C58.6296 17.6688 58.4745 17.6947 58.2931 17.6947H57.7231V16.0625H58.3449C58.5263 16.0625 58.6817 16.0625 58.7854 16.0884C58.9147 16.1144 59.0183 16.1403 59.0962 16.1921C59.1998 16.2439 59.2776 16.3216 59.3292 16.4252C59.3813 16.5288 59.407 16.6325 59.407 16.7621C59.4591 16.9434 59.4328 17.0729 59.3813 17.1766Z" fill="#858489"/>
<path d="M65.0032 19.8969H68.0084V19.3787H65.6506V17.7724H67.8527V17.2543H65.6506V16.0884H68.0084V15.5703H65.0032V19.8969Z" fill="#858489"/>
<path d="M70.495 19.8969V16.0884H72.127V15.5703H68.2407V16.0884H69.847V19.8969H70.495Z" fill="#858489"/>
<path d="M74.6136 19.2751C74.4321 19.4047 74.1734 19.4824 73.8105 19.4824C73.5512 19.4824 73.2924 19.4306 73.0331 19.3269C72.7744 19.2233 72.5151 19.0938 72.3079 18.9124H72.2563V19.6378C72.4636 19.7415 72.6965 19.8192 72.9553 19.871C73.1888 19.9228 73.4997 19.9747 73.8362 19.9747C74.1213 19.9747 74.3806 19.9487 74.5621 19.871C74.7693 19.7933 74.9244 19.7156 75.0801 19.586C75.2095 19.4824 75.3131 19.3269 75.391 19.1715C75.4688 19.0161 75.4946 18.8347 75.4946 18.6792C75.4946 18.4202 75.4167 18.187 75.261 18.0057C75.1059 17.8243 74.8729 17.6948 74.5358 17.5912C74.4064 17.5652 74.2507 17.5134 74.0435 17.4876C73.8362 17.4357 73.6811 17.4098 73.5512 17.3839C73.344 17.3321 73.1888 17.2543 73.0852 17.1507C72.9816 17.0471 72.9295 16.8916 72.9295 16.7103C72.9295 16.503 73.0331 16.3476 73.2146 16.2181C73.3961 16.0885 73.629 16.0367 73.9399 16.0367C74.1992 16.0367 74.4579 16.0885 74.6915 16.1663C74.9244 16.2699 75.1317 16.3735 75.2874 16.503H75.3389V15.8035C75.1317 15.7258 74.8987 15.6481 74.6657 15.5963C74.4322 15.5445 74.1734 15.5186 73.8883 15.5186C73.4218 15.5186 73.0331 15.6481 72.7223 15.8812C72.4115 16.1144 72.2563 16.3994 72.2563 16.7621C72.2563 16.9176 72.2821 17.073 72.3336 17.2025C72.3857 17.3321 72.4636 17.4357 72.5672 17.5394C72.6708 17.643 72.7744 17.7207 72.9295 17.7725C73.0595 17.8243 73.2146 17.8761 73.3703 17.928C73.5512 17.9798 73.7069 18.0057 73.8362 18.0316C73.9662 18.0575 74.0956 18.0834 74.2507 18.1352C74.4579 18.187 74.6136 18.2647 74.7172 18.3684C74.8208 18.472 74.8466 18.6274 74.8466 18.7829C74.8729 18.9643 74.7951 19.1456 74.6136 19.2751Z" fill="#858489"/>
<path d="M87.3607 16.529C87.7236 15.8813 92.5424 7.84993 92.7496 7.48724L94.3301 10.6998L99.3302 8.88626L94.8481 0.0259011C94.3301 0.0259011 84.459 0 84.459 0V5.2074H88.2417C88.0344 5.59601 80.2362 18.7052 80.1589 18.8347L82.5941 23.6535L98.0606 18.2907C98.1642 18.472 99.7189 21.7364 100.366 23.0577L105.367 21.1146C104.253 18.9643 100.781 12.2284 100.522 11.7102L87.3607 16.529Z" fill="#858489"/>
</g>
<defs>
<clipPath id="clip0_1_12015">
<rect width="105.366" height="24" fill="white"/>
</clipPath>
</defs>
</svg>
