<svg width="71" height="24" viewBox="0 0 71 24" fill="none" xmlns="http://www.w3.org/2000/svg">
<path d="M2.34005 11.461C2.72128 11.4573 3.10028 11.5197 3.46023 11.6453C3.79165 11.7592 4.0817 11.9691 4.29352 12.2483C4.47902 12.0187 4.71032 11.8303 4.97267 11.695C5.3095 11.5278 5.68276 11.4473 6.05856 11.461C6.33775 11.4597 6.6154 11.5021 6.88145 11.5868C7.12827 11.6642 7.35736 11.7896 7.55557 11.9558C7.74895 12.1208 7.90315 12.3268 8.00697 12.5588C8.12038 12.8195 8.17618 13.1015 8.17056 13.3858V16.7145H6.78206V13.7733C6.78206 13.0026 6.45826 12.6172 5.81067 12.617C5.66724 12.6099 5.52406 12.6353 5.39185 12.6913C5.25964 12.7474 5.14183 12.8326 5.04722 12.9407C4.84091 13.2245 4.74245 13.5726 4.76946 13.9224V16.713H3.38127V13.8526C3.4073 13.5214 3.31598 13.1915 3.12332 12.9209C3.01731 12.8123 2.88848 12.7287 2.74614 12.6761C2.6038 12.6236 2.45154 12.6034 2.30042 12.617C2.09315 12.6081 1.88577 12.6317 1.68577 12.6868C1.58426 12.7206 1.48487 12.7605 1.38817 12.8063V16.7133H0V11.9394C0.0264236 11.9259 0.102234 11.8928 0.227746 11.8397C0.387796 11.7749 0.55168 11.7201 0.718469 11.6755C0.953446 11.612 1.19184 11.562 1.43252 11.5257C1.7328 11.4808 2.03613 11.4593 2.33974 11.4613" fill="#858489"/>
<path d="M12.5132 12.2286C12.5764 12.071 12.667 11.9258 12.7809 11.7998C12.8539 11.7368 12.939 11.6894 13.0309 11.6603C13.1228 11.6312 13.2197 11.6211 13.3157 11.6306C13.4922 11.6219 13.6676 11.6633 13.8215 11.7502C13.9042 11.7969 13.9807 11.8539 14.0492 11.9197C14.0031 12.0791 13.9371 12.2701 13.8511 12.4928C13.7651 12.7156 13.6693 12.9514 13.5636 13.2003C13.4587 13.4497 13.3513 13.7006 13.2414 13.9531C13.1315 14.2056 13.0307 14.4381 12.9388 14.6508C12.7472 15.0893 12.5505 15.5146 12.349 15.9267C12.1475 16.3387 11.9244 16.7573 11.6796 17.1824C11.5672 17.3818 11.4483 17.5729 11.3229 17.7556C11.1988 17.9363 11.0522 18.1004 10.8866 18.2441C10.5307 18.556 10.0699 18.7215 9.59687 18.7071C9.44236 18.7081 9.2881 18.6948 9.13604 18.6675C9.01046 18.6449 8.8863 18.6149 8.76422 18.5778C8.67836 18.5519 8.5943 18.5204 8.51257 18.4835C8.47358 18.4696 8.43805 18.4475 8.40845 18.4187L8.80479 17.4322C8.89028 17.4681 8.97814 17.498 9.06776 17.5218C9.20132 17.5614 9.33992 17.5816 9.47923 17.5816C9.66938 17.5864 9.85524 17.5248 10.0049 17.4073C10.1824 17.2493 10.3272 17.058 10.4311 16.8442L10.7287 16.2761C10.6163 16.0899 10.4923 15.8822 10.3569 15.653C10.2214 15.4238 10.0858 15.1895 9.95014 14.9502C9.81467 14.711 9.68087 14.4751 9.54875 14.2428C9.41663 14.0104 9.29762 13.7993 9.19172 13.6095C9.08581 13.4208 8.99657 13.2597 8.92401 13.1261C8.85145 12.9925 8.80522 12.9062 8.7853 12.8672C8.73679 12.7716 8.69372 12.6735 8.65631 12.5731C8.62171 12.4756 8.60489 12.3726 8.60663 12.2692C8.60666 12.1098 8.66089 11.9552 8.76043 11.8307C8.83225 11.7567 8.92015 11.7003 9.01731 11.6657C9.11446 11.6312 9.21828 11.6195 9.32068 11.6316C9.52742 11.6158 9.73429 11.6607 9.91585 11.7609C9.93556 11.8141 9.995 11.9504 10.0942 12.1698C10.1934 12.3891 10.3157 12.6483 10.461 12.9474C10.6065 13.2464 10.7638 13.5654 10.9328 13.9043C11.1019 14.2432 11.2654 14.5587 11.4236 14.8508C11.5494 14.5719 11.6717 14.2911 11.7907 14.0084C11.9096 13.7257 12.017 13.465 12.1131 13.2261C12.2087 12.9868 12.2912 12.7792 12.3607 12.6033C12.4301 12.4273 12.4813 12.3027 12.5145 12.2296" fill="#858489"/>
<path d="M15.8959 12.1191C15.9261 12.0751 15.9592 12.033 15.9949 11.9933C16.0751 11.9064 16.1669 11.8309 16.2677 11.769C16.4152 11.6779 16.5737 11.606 16.7395 11.5551C16.9678 11.4869 17.2053 11.455 17.4435 11.4607C17.7182 11.4581 17.9915 11.5018 18.2516 11.59C18.4908 11.6712 18.7092 11.804 18.8915 11.9788C19.0779 12.164 19.2201 12.3889 19.3076 12.6366C19.4134 12.9408 19.4639 13.2615 19.4568 13.5834V16.7131H18.0683V13.7728C18.0683 13.0021 17.7147 12.6167 17.0075 12.6165C16.847 12.6075 16.6869 12.6393 16.542 12.709C16.3972 12.7787 16.2724 12.884 16.1793 13.015C15.9814 13.3124 15.8823 13.6647 15.8962 14.0216V16.7128H14.508V9.96592C14.4979 9.87744 14.5108 9.78784 14.5455 9.70583C14.5802 9.62381 14.6356 9.55217 14.7062 9.49786C14.8651 9.40454 15.0477 9.35951 15.2318 9.36826C15.3737 9.36697 15.5153 9.38365 15.653 9.41795C15.782 9.45129 15.8629 9.47456 15.8959 9.48778V12.1191Z" fill="#858489"/>
<path d="M25.8311 14.1721C25.834 14.5351 25.7685 14.8954 25.6379 15.2341C25.5138 15.5549 25.3248 15.8466 25.0827 16.091C24.834 16.3383 24.5392 16.5346 24.2151 16.6688C23.4887 16.9549 22.6808 16.9549 21.9544 16.6688C21.6301 16.5347 21.3353 16.3384 21.0865 16.091C20.8441 15.8468 20.6551 15.555 20.5313 15.2341C20.2738 14.5498 20.2738 13.7953 20.5313 13.1111C20.6549 12.79 20.844 12.498 21.0865 12.2539C21.3353 12.0064 21.6302 11.8099 21.9544 11.6754C22.6809 11.3901 23.4886 11.3901 24.2151 11.6754C24.5392 11.81 24.8339 12.0065 25.0827 12.2539C25.325 12.4982 25.514 12.7901 25.6379 13.1111C25.7685 13.4496 25.834 13.8093 25.8311 14.1721ZM24.4231 14.1724C24.4247 13.9587 24.3965 13.7457 24.3391 13.5398C24.2883 13.3547 24.2005 13.1818 24.0811 13.0315C23.9609 12.8831 23.809 12.7635 23.6366 12.6813C23.4642 12.5991 23.2756 12.5565 23.0846 12.5565C22.8936 12.5565 22.705 12.5991 22.5326 12.6813C22.3602 12.7635 22.2083 12.8831 22.088 13.0315C21.9686 13.1818 21.8808 13.3547 21.8301 13.5398C21.7179 13.9543 21.7179 14.3912 21.8301 14.8057C21.8808 14.9907 21.9685 15.1636 22.088 15.3137C22.2083 15.4621 22.3601 15.5818 22.5325 15.664C22.705 15.7462 22.8936 15.7889 23.0846 15.7889C23.2756 15.7889 23.4642 15.7462 23.6366 15.664C23.809 15.5818 23.9609 15.4621 24.0811 15.3137C24.2006 15.1635 24.2884 14.9907 24.3391 14.8057C24.3965 14.5995 24.4248 14.3864 24.4231 14.1724Z" fill="#858489"/>
<path d="M26.7834 9.96575C26.7733 9.87722 26.7862 9.7876 26.8209 9.70554C26.8556 9.62348 26.911 9.55178 26.9815 9.49737C27.1405 9.40411 27.3231 9.35906 27.5072 9.36776C27.6491 9.36669 27.7906 9.38349 27.9284 9.41777C28.0573 9.45112 28.1382 9.47441 28.1712 9.48762V16.7135H26.783L26.7834 9.96575Z" fill="#858489"/>
<path d="M30.8981 10.1253C30.8996 10.2266 30.8801 10.3272 30.8408 10.4207C30.8015 10.5141 30.7432 10.5984 30.6697 10.6682C30.5971 10.7411 30.5104 10.7986 30.415 10.8371C30.3196 10.8757 30.2174 10.8945 30.1145 10.8925C30.0131 10.8939 29.9125 10.8747 29.8188 10.8361C29.7251 10.7976 29.6401 10.7405 29.569 10.6682C29.4955 10.5984 29.4373 10.5141 29.398 10.4207C29.3588 10.3272 29.3394 10.2266 29.3409 10.1253C29.3391 10.0246 29.3584 9.92462 29.3977 9.83189C29.437 9.73916 29.4954 9.65574 29.569 9.58705C29.6407 9.51593 29.7259 9.45982 29.8196 9.42201C29.9132 9.38421 30.0135 9.36545 30.1145 9.36685C30.217 9.3648 30.3189 9.38323 30.4143 9.42103C30.5096 9.45884 30.5964 9.51528 30.6697 9.58705C30.7434 9.65572 30.8018 9.73914 30.8411 9.83187C30.8805 9.9246 30.8999 10.0246 30.8981 10.1253ZM29.4303 12.2282C29.4202 12.1396 29.4331 12.05 29.4678 11.9679C29.5025 11.8859 29.5579 11.8141 29.6285 11.7598C29.7874 11.6666 29.9701 11.6217 30.1541 11.6305C30.296 11.6291 30.4376 11.6458 30.5753 11.6802C30.7043 11.7138 30.7851 11.7368 30.8185 11.75V16.7136H29.4303V12.2282Z" fill="#858489"/>
<path d="M36.9572 16.7136C36.9176 16.7198 36.8396 16.7315 36.7241 16.7485C36.6087 16.7655 36.4643 16.7799 36.2929 16.7931C36.1214 16.8063 35.9261 16.8196 35.7078 16.8331C35.4894 16.8466 35.2614 16.8529 35.0236 16.8529C33.9331 16.8529 33.1184 16.6038 32.5794 16.1055C32.303 15.8347 32.0878 15.5077 31.9483 15.1467C31.8089 14.7857 31.7484 14.399 31.771 14.0127C31.7646 13.6436 31.8286 13.2766 31.9597 12.9315C32.073 12.6348 32.2468 12.3649 32.4702 12.1391C32.6821 11.9284 32.9353 11.7638 33.2139 11.6556C33.5001 11.5451 33.8045 11.4892 34.1113 11.4911C34.3161 11.4884 34.5201 11.517 34.7162 11.5761C34.8744 11.6235 35.0261 11.6905 35.1677 11.7755C35.2696 11.8363 35.3646 11.9081 35.4508 11.9897C35.4933 12.0302 35.533 12.0735 35.5697 12.1193V9.96579C35.5596 9.87721 35.5725 9.78753 35.6072 9.70542C35.6419 9.62331 35.6973 9.55154 35.7679 9.49708C35.9268 9.40387 36.1094 9.35895 36.2935 9.36779C36.4354 9.36667 36.5769 9.38337 36.7147 9.4175C36.8437 9.45085 36.9247 9.47412 36.9578 9.48733L36.9572 16.7136ZM33.1991 14.1621C33.197 14.38 33.2288 14.597 33.2935 14.8051C33.3525 14.9943 33.4504 15.169 33.581 15.3181C33.7167 15.4692 33.8867 15.5855 34.0767 15.6572C34.3067 15.7419 34.5505 15.7825 34.7955 15.7771C34.9679 15.7791 35.1402 15.7685 35.3111 15.7456C35.3993 15.7368 35.486 15.7167 35.569 15.6859V13.9416C35.5814 13.6027 35.4802 13.2693 35.2815 12.9944C35.1789 12.8665 35.0469 12.7654 34.8967 12.6996C34.7465 12.6339 34.5826 12.6055 34.419 12.617C34.2462 12.6093 34.0741 12.644 33.9178 12.7179C33.7614 12.7918 33.6254 12.9027 33.5215 13.041C33.293 13.3687 33.1794 13.7631 33.1991 14.1621Z" fill="#858489"/>
<path d="M42.6188 16.6723C42.5993 16.6789 42.526 16.6924 42.4009 16.7122C42.2757 16.732 42.1086 16.7525 41.9004 16.7723C41.6921 16.7921 41.4455 16.8107 41.1615 16.8267C40.8774 16.8428 40.5666 16.8516 40.2291 16.8516C39.824 16.8609 39.4193 16.8191 39.0246 16.7273C38.7543 16.6647 38.4996 16.5477 38.2759 16.3835C38.1021 16.2525 37.9695 16.0743 37.8941 15.8701C37.823 15.6632 37.7879 15.4456 37.7903 15.2268C37.7848 14.9717 37.8286 14.7179 37.9192 14.4794C38.004 14.2681 38.1486 14.0862 38.3354 13.956C38.559 13.8066 38.8102 13.7034 39.0743 13.6524C39.4349 13.5802 39.8022 13.5467 40.17 13.5524C40.4677 13.5524 40.7157 13.5608 40.9139 13.5776C41.1121 13.5943 41.2274 13.606 41.2599 13.6125V13.453C41.2599 12.8085 40.827 12.4862 39.9611 12.486C39.7843 12.4838 39.6079 12.5023 39.4354 12.5411C39.3011 12.5718 39.17 12.6152 39.0438 12.6707C38.9476 12.7136 38.8548 12.7637 38.766 12.8204C38.6899 12.8701 38.6289 12.9082 38.5826 12.9349C38.4733 12.8658 38.3832 12.7701 38.3208 12.6568C38.2583 12.5435 38.2256 12.4163 38.2256 12.2869C38.2224 12.1492 38.2721 12.0154 38.3643 11.9132C38.4678 11.8029 38.5951 11.7177 38.7365 11.664C38.9083 11.5965 39.088 11.5513 39.2712 11.5294C39.4767 11.5025 39.6837 11.4892 39.8909 11.4895C40.262 11.4863 40.6324 11.5214 40.9963 11.5942C41.3063 11.6536 41.6009 11.776 41.8617 11.9538C42.1051 12.126 42.2985 12.3599 42.4219 12.6313C42.5644 12.9666 42.6321 13.3289 42.6201 13.693L42.6188 16.6723ZM41.2505 14.4797C41.1395 14.457 41.0268 14.4438 40.9136 14.4401C40.7284 14.4267 40.53 14.42 40.3184 14.42C40.1184 14.4153 39.9186 14.4354 39.7236 14.4797C39.5955 14.5079 39.4753 14.564 39.3716 14.6442C39.2921 14.709 39.2334 14.7956 39.2027 14.8934C39.1727 14.9919 39.1578 15.0943 39.1583 15.1973C39.1579 15.2884 39.1713 15.3791 39.1979 15.4662C39.2283 15.5586 39.2852 15.64 39.3615 15.7002C39.4639 15.7801 39.5817 15.8379 39.7075 15.8701C39.897 15.918 40.0922 15.9398 40.2876 15.9346C40.4964 15.9372 40.7051 15.9255 40.9123 15.8997C41.0774 15.8766 41.1897 15.8584 41.2492 15.845L41.2505 14.4797Z" fill="#858489"/>
<path d="M46.9613 12.2286C47.0243 12.071 47.1149 11.9258 47.2287 11.7998C47.3017 11.7368 47.3867 11.6894 47.4787 11.6603C47.5706 11.6312 47.6675 11.6211 47.7634 11.6306C47.9398 11.6219 48.1151 11.6633 48.269 11.7502C48.3518 11.7969 48.4284 11.8538 48.497 11.9197C48.4509 12.0791 48.3848 12.2701 48.2988 12.4928C48.2129 12.7156 48.1169 12.9514 48.011 13.2003C47.9061 13.4497 47.7989 13.7006 47.6892 13.9531C47.5795 14.2056 47.4785 14.4381 47.3863 14.6508C47.1946 15.0893 46.998 15.5146 46.7965 15.9267C46.5949 16.3387 46.3718 16.7573 46.127 17.1824C46.0146 17.3818 45.8958 17.5729 45.7704 17.7556C45.6463 17.9363 45.4996 18.1004 45.334 18.2441C44.9782 18.556 44.5173 18.7215 44.0443 18.7071C43.8898 18.7081 43.7356 18.6948 43.5835 18.6675C43.4579 18.6449 43.3338 18.6149 43.2117 18.5778C43.1258 18.5519 43.0417 18.5204 42.96 18.4835C42.9211 18.4696 42.8857 18.4475 42.8562 18.4187L43.2526 17.4322C43.338 17.4681 43.4259 17.498 43.5155 17.5218C43.6491 17.5614 43.7877 17.5816 43.927 17.5816C44.1171 17.5864 44.303 17.5248 44.4526 17.4073C44.6302 17.2494 44.775 17.0581 44.8788 16.8442L45.1764 16.2761C45.064 16.0899 44.9401 15.8822 44.8046 15.653C44.6691 15.4238 44.5337 15.1895 44.3982 14.9502C44.2627 14.711 44.1288 14.4751 43.9965 14.2428C43.8642 14.0104 43.7452 13.7993 43.6395 13.6095C43.5336 13.4208 43.4443 13.2597 43.3718 13.1261C43.2992 12.9925 43.253 12.9062 43.2331 12.8672C43.1845 12.7717 43.1414 12.6735 43.1041 12.5731C43.0694 12.4756 43.0526 12.3726 43.0544 12.2692C43.0545 12.1098 43.1087 11.9552 43.2082 11.8307C43.28 11.7567 43.3679 11.7003 43.4651 11.6657C43.5622 11.6312 43.666 11.6195 43.7685 11.6316C43.9177 11.6244 44.0669 11.6446 44.2088 11.6913C44.2617 11.7109 44.3131 11.7341 44.3626 11.7609C44.3825 11.814 44.4416 11.9496 44.541 12.1698C44.6404 12.39 44.7612 12.6482 44.9078 12.9474C45.0544 13.2465 45.2104 13.5655 45.3796 13.9043C45.5489 14.2431 45.7118 14.5586 45.8704 14.8508C45.9962 14.5719 46.1186 14.2911 46.2375 14.0084C46.3564 13.7257 46.4637 13.465 46.5596 13.2261C46.6554 12.9868 46.7381 12.7792 46.8075 12.6033C46.8769 12.4273 46.9281 12.3027 46.9613 12.2296" fill="#858489"/>
<path d="M51.0966 12.5076C50.8224 12.4835 50.5467 12.5334 50.2983 12.6522C50.2344 12.6893 50.1812 12.7423 50.1438 12.806C50.1064 12.8697 50.0862 12.942 50.085 13.0159C50.0838 13.0795 50.0998 13.1422 50.1312 13.1976C50.1625 13.2529 50.2082 13.2988 50.2634 13.3305C50.4479 13.4263 50.6506 13.4823 50.8582 13.4947L51.711 13.6048C52.2012 13.6345 52.6726 13.8039 53.0696 14.093C53.2116 14.2181 53.3237 14.3735 53.3975 14.5477C53.4713 14.722 53.5051 14.9106 53.4962 15.0996C53.5027 15.3446 53.4508 15.5877 53.3448 15.8087C53.2387 16.0297 53.0815 16.2223 52.8862 16.3704C52.3539 16.7294 51.7166 16.8997 51.0762 16.8539C50.7385 16.8576 50.4013 16.8275 50.0696 16.7643C49.8122 16.7146 49.5587 16.6464 49.3112 16.5601C49.1397 16.5015 48.9738 16.4278 48.8154 16.3399C48.7383 16.2988 48.6653 16.2503 48.5974 16.1952L49.1322 15.2487C49.1894 15.2928 49.2508 15.3312 49.3156 15.3632C49.4471 15.4332 49.5829 15.4947 49.7223 15.5475C49.9156 15.6214 50.1146 15.6798 50.3172 15.7221C50.5633 15.7737 50.8143 15.7987 51.0658 15.7967C51.3239 15.8151 51.5826 15.772 51.8208 15.6708C51.8878 15.637 51.9439 15.5849 51.9825 15.5205C52.0211 15.456 52.0406 15.382 52.0388 15.3069C52.0424 15.2389 52.0279 15.1711 51.9965 15.1106C51.9651 15.0502 51.9181 14.9992 51.8604 14.9631C51.656 14.8622 51.4336 14.803 51.2061 14.7888L50.5512 14.7092C50.0692 14.6747 49.6039 14.5186 49.1986 14.2556C49.0317 14.1274 48.8994 13.9595 48.8137 13.7673C48.728 13.575 48.6916 13.3645 48.7078 13.1546C48.7067 12.9344 48.7488 12.716 48.8318 12.512C48.9164 12.306 49.051 12.1242 49.2234 11.9832C49.432 11.8182 49.6713 11.6963 49.9274 11.6246C50.2725 11.5277 50.63 11.4823 50.9884 11.4899C51.3645 11.4819 51.7402 11.5154 52.1089 11.59C52.3124 11.6312 52.5116 11.6913 52.7041 11.7693C53.0606 11.9222 53.2388 12.1319 53.2388 12.3984C53.246 12.5502 53.1966 12.6993 53.1001 12.8168C53.0178 12.9144 52.9208 12.9985 52.8126 13.0662C52.7994 13.0527 52.7563 13.0162 52.6833 12.9564C52.5853 12.8814 52.4789 12.8181 52.3662 12.7677C52.1973 12.6908 52.0212 12.6306 51.8406 12.5881C51.5969 12.5313 51.3471 12.5045 51.0969 12.5082" fill="#858489"/>
<path d="M50.6744 0.641683C51.2456 -0.229667 52.6247 0.0638174 53.3797 0.469923C54.3303 1.01296 55.1054 1.81707 55.6131 2.78701C55.9591 3.42558 58.4026 7.95189 58.6203 8.35485L58.6329 8.37875C58.6913 8.48049 58.722 8.59573 58.722 8.71301C58.722 8.83029 58.6914 8.94553 58.6331 9.0473C58.5748 9.14907 58.4909 9.23381 58.3897 9.29311C58.2885 9.35242 58.1736 9.38422 58.0563 9.38537L56.3262 9.36807H55.3765C54.9868 9.31805 54.5155 9.13089 54.0868 8.33724C54.0534 8.26709 51.1183 2.99558 50.8663 2.50076C50.5989 1.97449 50.3161 1.19028 50.6775 0.641357" fill="#858489"/>
<path d="M52.8634 9.34945H50.3117C50.0455 9.28376 49.7974 9.15967 49.5852 8.98616C49.373 8.81264 49.2021 8.59408 49.0848 8.34631L48.8539 7.91881C48.2912 6.88892 47.7265 5.86343 47.1745 4.82725C46.7621 4.0531 46.3786 3.24937 45.9307 2.49787C45.4167 1.54837 44.6107 0.789627 43.6318 0.333977C43.7234 0.0996252 44.0779 0.0920774 44.2767 0.0684849C44.5847 0.0319952 44.8948 0.0109153 45.205 0.00556771C45.8259 -0.00752841 46.4467 0.0392341 47.0587 0.145226C47.7099 0.262827 48.3265 0.524387 48.8636 0.910792C49.4007 1.2972 49.8447 1.7987 50.1632 2.37866L53.3875 8.34882L53.3976 8.36737C53.4551 8.46452 53.4863 8.57493 53.4884 8.68779C53.4905 8.80066 53.4633 8.91215 53.4094 9.01135C53.3555 9.11055 53.2768 9.19406 53.181 9.25376C53.0852 9.31346 52.9756 9.3473 52.8628 9.35197" fill="#858489"/>
<path d="M63.6404 10.3527L60.4161 16.3229C60.0976 16.9028 59.6537 17.4044 59.1165 17.7908C58.5794 18.1772 57.9628 18.4387 57.3116 18.5563C56.6996 18.6623 56.0789 18.7091 55.4579 18.696C55.148 18.6894 54.8386 18.6685 54.5299 18.633C54.3308 18.6094 53.9766 18.6016 53.8848 18.3675C54.8637 17.912 55.6698 17.1534 56.1839 16.204C56.6315 15.4521 57.0153 14.6484 57.4277 13.8743C57.9798 12.8381 58.5444 11.8126 59.1072 10.7827L59.3381 10.3552C59.4553 10.1075 59.6263 9.88897 59.8385 9.71552C60.0507 9.54206 60.2988 9.41801 60.5649 9.35238C60.2988 9.28674 60.0507 9.16269 59.8385 8.98923C59.6263 8.81577 59.4553 8.59727 59.3381 8.34954L59.1072 7.92204C58.5447 6.89183 57.9798 5.86665 57.4277 4.83015C57.0153 4.056 56.6315 3.2523 56.1839 2.50049C55.6698 1.55109 54.8636 0.79245 53.8848 0.336881C53.9766 0.102529 54.3305 0.0949812 54.5299 0.0713887C54.838 0.034899 55.1473 0.013924 55.4579 0.00847151C56.0789 -0.00455008 56.6997 0.0423298 57.3116 0.148456C57.9628 0.265994 58.5794 0.527533 59.1165 0.913945C59.6537 1.30036 60.0977 1.80189 60.4161 2.38189L63.6404 8.35205C63.8714 8.82222 64.2782 9.1825 64.7729 9.35489C64.2782 9.52725 63.8713 9.88754 63.6404 10.3577" fill="#858489"/>
<path d="M68.6995 1.72296C68.5038 1.96873 68.3251 2.22759 68.1647 2.49774C67.7168 3.24987 67.333 4.05328 66.9206 4.82743C66.3686 5.86329 65.8039 6.8891 65.2415 7.91899L65.1286 8.1285C65.0967 8.18874 65.047 8.23772 64.9864 8.26879C64.9028 8.31544 64.8078 8.33764 64.7123 8.33286C64.6167 8.32807 64.5244 8.2965 64.4459 8.24174C64.2486 8.09699 64.091 7.90485 63.9876 7.68306L62.8423 5.51633C62.7505 5.34153 62.703 5.1469 62.7039 4.94948C62.7047 4.75206 62.754 4.55787 62.8473 4.3839L63.9323 2.37538C64.2507 1.79541 64.6947 1.2939 65.2318 0.907496C65.769 0.521088 66.3856 0.259529 67.0367 0.141949C67.3387 0.0894163 67.6438 0.0516803 67.9489 0.0284023C68.262 0.00449526 68.5759 -0.00432689 68.8905 0.00196444C69.0647 0.00542468 69.239 0.0151905 69.4126 0.0284023C69.4774 0.0334354 69.5425 0.0403506 69.607 0.046642C69.6775 0.0535624 69.7483 0.0582773 69.8187 0.066456C70.0175 0.0897339 70.3721 0.0979108 70.4636 0.331948C69.7664 0.636225 69.1589 1.11444 68.6995 1.72077" fill="#858489"/>
<path d="M9.64345 20.3078C9.64018 20.2674 9.64613 20.2268 9.66084 20.189C9.67555 20.1513 9.69865 20.1173 9.72838 20.0898C9.79681 20.0389 9.88105 20.0138 9.9662 20.019C10.0266 20.0184 10.0867 20.027 10.1446 20.0445C10.1827 20.0549 10.2197 20.0691 10.255 20.087V23.3767H12.1518V23.9089H9.64345V20.3078ZM13.4541 20.0926C13.4546 20.1397 13.4454 20.1865 13.4268 20.2298C13.4083 20.2731 13.381 20.3121 13.3465 20.3443C13.3123 20.3783 13.2717 20.405 13.2269 20.423C13.1822 20.4409 13.1343 20.4497 13.0861 20.4487C13.0387 20.4492 12.9918 20.4402 12.948 20.4222C12.9043 20.4042 12.8645 20.3776 12.8313 20.344C12.7968 20.3118 12.7695 20.2728 12.751 20.2295C12.7324 20.1861 12.7231 20.1394 12.7237 20.0923C12.7231 20.0452 12.7324 19.9985 12.751 19.9551C12.7695 19.9118 12.7968 19.8728 12.8313 19.8407C12.8645 19.807 12.9043 19.7804 12.948 19.7624C12.9918 19.7444 13.0387 19.7354 13.0861 19.7359C13.1343 19.735 13.1822 19.7438 13.2269 19.7618C13.2717 19.7798 13.3124 19.8066 13.3465 19.8407C13.381 19.8729 13.4084 19.9119 13.4269 19.9553C13.4454 19.9987 13.4547 20.0454 13.4541 20.0926ZM12.7973 21.3326C12.7937 21.2946 12.7993 21.2562 12.8136 21.2208C12.8279 21.1853 12.8504 21.1538 12.8794 21.1288C12.9469 21.0833 13.0275 21.0612 13.1087 21.0659C13.1669 21.0652 13.2249 21.0718 13.2814 21.0857C13.3169 21.0943 13.3518 21.1048 13.3862 21.1172V23.9089H12.7973V21.3326ZM16.9647 21.1911C16.9319 21.3035 16.8931 21.414 16.8486 21.5223C16.7939 21.6601 16.731 21.8139 16.6599 21.9838C16.5888 22.1537 16.5104 22.3319 16.4249 22.5186C16.3399 22.7054 16.255 22.8866 16.1701 23.0621C16.0851 23.2377 16.004 23.4019 15.9266 23.5547C15.8486 23.707 15.7813 23.8345 15.7247 23.9373H15.1188C15.0509 23.8165 14.9801 23.6834 14.9065 23.5381C14.8329 23.3927 14.7595 23.2459 14.6863 23.0977C14.6122 22.9477 14.5413 22.7987 14.4733 22.6507L14.2846 22.2402C14.2261 22.1143 14.1751 22.002 14.1317 21.9033C14.0883 21.8045 14.0552 21.729 14.0326 21.6768C14.01 21.6239 13.9873 21.5673 13.9647 21.5069C13.9432 21.4528 13.9317 21.3952 13.9307 21.337C13.9308 21.2687 13.9548 21.2026 13.9986 21.1502C14.0283 21.1193 14.0646 21.0956 14.1049 21.0809C14.1451 21.0661 14.1882 21.0608 14.2308 21.0653C14.2901 21.063 14.3495 21.0707 14.4063 21.0879C14.4298 21.0951 14.4526 21.1046 14.4743 21.1162C14.5384 21.2936 14.613 21.488 14.6979 21.6994C14.7828 21.9108 14.8697 22.1194 14.9584 22.3251C15.0471 22.5308 15.133 22.7271 15.216 22.914C15.299 23.1008 15.3724 23.2581 15.4362 23.3858C15.4815 23.299 15.5409 23.1754 15.6146 23.0149C15.6882 22.8545 15.7655 22.678 15.8467 22.4855C15.9279 22.293 16.01 22.0948 16.093 21.891C16.1761 21.6872 16.2495 21.5003 16.3132 21.3304C16.337 21.2582 16.3756 21.1917 16.4265 21.1351C16.4575 21.1087 16.4936 21.0889 16.5325 21.0767C16.5714 21.0646 16.6124 21.0603 16.6529 21.0643C16.7289 21.0607 16.8044 21.0783 16.8709 21.1153C16.907 21.134 16.9389 21.1597 16.9647 21.1911ZM20.0676 22.0631C20.0729 22.1567 20.0597 22.2504 20.0286 22.3388C19.9975 22.4273 19.9491 22.5087 19.8864 22.5783C19.8009 22.6487 19.7024 22.7014 19.5965 22.7335C19.4905 22.7656 19.3793 22.7763 19.2692 22.7652H17.9442C17.955 22.8718 17.9868 22.9753 18.0378 23.0696C18.0889 23.1639 18.1581 23.2471 18.2415 23.3144C18.4352 23.4518 18.6697 23.5196 18.9068 23.5069C19.0855 23.5117 19.264 23.4897 19.4362 23.4418C19.5333 23.415 19.6272 23.378 19.7165 23.3314L19.8977 23.7561C19.8788 23.7674 19.8401 23.7872 19.7816 23.8155C19.7086 23.8492 19.6328 23.8766 19.5551 23.8976C19.4489 23.9271 19.3412 23.9507 19.2324 23.9684C19.1004 23.99 18.9669 24.0005 18.8332 23.9999C18.6324 24.0014 18.4326 23.9707 18.2415 23.9089C18.065 23.8523 17.9021 23.7598 17.763 23.6372C17.623 23.5105 17.5136 23.3537 17.4431 23.1785C17.362 22.9732 17.3225 22.7538 17.3271 22.533C17.3244 22.3176 17.3619 22.1035 17.4375 21.9017C17.5064 21.7185 17.6113 21.551 17.7461 21.4091C17.8788 21.2709 18.0388 21.162 18.216 21.0892C18.4066 21.0119 18.6106 20.9734 18.8162 20.9759C18.9998 20.9728 19.1826 21.0005 19.357 21.058C19.5015 21.1057 19.6345 21.1828 19.7476 21.2845C19.8509 21.38 19.9321 21.4969 19.9855 21.6271C20.0414 21.7655 20.0693 21.9137 20.0676 22.0631ZM19.507 22.0064C19.5068 21.9332 19.4943 21.8605 19.4702 21.7913C19.445 21.7186 19.4034 21.6527 19.3485 21.5988C19.2859 21.5383 19.2117 21.4911 19.1305 21.46C19.0284 21.4219 18.9201 21.4036 18.8112 21.4063C18.6794 21.4035 18.549 21.4337 18.4318 21.494C18.3262 21.5494 18.2328 21.6254 18.1572 21.7177C18.0835 21.8081 18.0267 21.911 17.9895 22.0215C17.9524 22.1283 17.9312 22.2399 17.9266 22.3528H19.122C19.2256 22.3616 19.3292 22.3357 19.4164 22.2792C19.4507 22.2432 19.4767 22.2001 19.4923 22.153C19.508 22.1058 19.513 22.0558 19.507 22.0064ZM22.944 21.5535V23.0143C22.9358 23.0842 22.9428 23.155 22.9646 23.222C22.9863 23.2889 23.0222 23.3504 23.0698 23.4022C23.1669 23.4766 23.2874 23.5138 23.4095 23.5069C23.4667 23.5073 23.5238 23.5006 23.5794 23.4871C23.6279 23.4754 23.6753 23.4593 23.7209 23.439C23.7561 23.4235 23.7902 23.4055 23.8229 23.3852L23.8795 23.3484L24.106 23.7108L24.021 23.7759C23.9702 23.8137 23.9151 23.8454 23.8568 23.8703C23.7771 23.9044 23.6948 23.9319 23.6105 23.9524C23.5039 23.9781 23.3946 23.9904 23.2849 23.9892C23.1418 23.9923 22.9993 23.969 22.8647 23.9203C22.7553 23.8802 22.6565 23.8157 22.5759 23.7315C22.5 23.6496 22.4429 23.552 22.4089 23.4456C22.3721 23.3303 22.354 23.2099 22.3551 23.0889V21.5535H22.0946C21.9134 21.5535 21.8228 21.4723 21.8228 21.31C21.8215 21.2567 21.8311 21.2037 21.8512 21.1543C21.87 21.1109 21.8832 21.0816 21.8908 21.0665H22.3551V20.4487C22.3521 20.4111 22.358 20.3733 22.3722 20.3384C22.3865 20.3035 22.4087 20.2724 22.4372 20.2477C22.504 20.2006 22.5849 20.1777 22.6665 20.1826C22.7249 20.1818 22.783 20.1894 22.8392 20.2052C22.8902 20.2203 22.9251 20.2317 22.944 20.2392V21.0659H23.6675C23.8449 21.0659 23.9336 21.147 23.9336 21.3094C23.9348 21.3624 23.9262 21.4152 23.9081 21.4651C23.8911 21.5085 23.8789 21.5377 23.8713 21.5528L22.944 21.5535ZM27.4058 22.4877C27.4076 22.693 27.3701 22.8967 27.2954 23.0879C27.2258 23.2666 27.1209 23.4293 26.9868 23.5664C26.851 23.7028 26.6893 23.8106 26.5111 23.8835C26.3171 23.9626 26.1092 24.0021 25.8996 23.9995C25.6892 24.0019 25.4804 23.9624 25.2853 23.8835C25.106 23.8111 24.9433 23.7033 24.8068 23.5664C24.6727 23.4293 24.5678 23.2666 24.4982 23.0879C24.4235 22.8967 24.386 22.693 24.3878 22.4877C24.386 22.2825 24.4235 22.0787 24.4982 21.8875C24.5678 21.7089 24.6727 21.5461 24.8068 21.4091C24.9433 21.2722 25.106 21.1643 25.2853 21.092C25.4804 21.013 25.6892 20.9736 25.8996 20.9759C26.1092 20.9734 26.3171 21.0129 26.5111 21.092C26.6893 21.1648 26.851 21.2726 26.9868 21.4091C27.1209 21.5461 27.2258 21.7089 27.2954 21.8875C27.3701 22.0787 27.4076 22.2825 27.4058 22.4877ZM26.7999 22.4877C26.8016 22.3466 26.7808 22.2061 26.7383 22.0716C26.7003 21.9517 26.6398 21.8402 26.5599 21.7432C26.483 21.651 26.3862 21.5774 26.2768 21.528C26.158 21.4754 26.0292 21.4493 25.8993 21.4515C25.7679 21.4491 25.6375 21.4752 25.5171 21.528C25.4077 21.5774 25.3109 21.651 25.234 21.7432C25.1541 21.8402 25.0936 21.9517 25.0556 22.0716C25.0127 22.2061 24.9914 22.3465 24.9927 22.4877C24.9914 22.6289 25.0127 22.7694 25.0556 22.9039C25.0936 23.0238 25.1541 23.1352 25.234 23.2323C25.3109 23.3245 25.4077 23.398 25.5171 23.4475C25.6375 23.5003 25.7679 23.5264 25.8993 23.5239C26.0292 23.5261 26.158 23.5 26.2768 23.4475C26.3862 23.398 26.483 23.3245 26.5599 23.2323C26.64 23.1348 26.7005 23.0227 26.7383 22.9023C26.7811 22.7683 26.8023 22.6284 26.8012 22.4877H26.7999ZM30.016 22.4707C30.0148 22.6156 30.036 22.7599 30.079 22.8982C30.1178 23.0239 30.1846 23.139 30.2743 23.2351C30.369 23.3334 30.4853 23.408 30.614 23.4531C30.7715 23.5073 30.9373 23.5332 31.1038 23.5296C31.2316 23.5321 31.3594 23.5245 31.486 23.5069C31.5464 23.4984 31.6061 23.4851 31.6644 23.4673V22.4085C31.6657 22.284 31.6487 22.16 31.614 22.0404C31.5828 21.9324 31.5308 21.8314 31.4612 21.7432C31.3937 21.6586 31.3076 21.5907 31.2095 21.545C31.0982 21.4955 30.9774 21.4713 30.8556 21.4742C30.7378 21.4663 30.6197 21.4863 30.511 21.5326C30.4023 21.5788 30.306 21.65 30.23 21.7403C30.0771 21.9521 30.0016 22.21 30.016 22.4707ZM32.2526 23.9089C32.2375 23.9127 32.2007 23.9184 32.1422 23.9259C32.0837 23.9335 32.0082 23.942 31.9157 23.9514C31.8232 23.9608 31.7147 23.9693 31.5901 23.9769C31.4656 23.9844 31.3293 23.9882 31.1812 23.9882C30.9149 23.9933 30.6494 23.956 30.3948 23.8778C30.1894 23.814 30.0001 23.7067 29.8399 23.5632C29.6928 23.4275 29.5802 23.2586 29.5115 23.0706C29.4373 22.8636 29.4009 22.645 29.4039 22.4251C29.4009 22.2178 29.4356 22.0116 29.5065 21.8168C29.5675 21.6486 29.6619 21.4946 29.7839 21.3638C29.9007 21.2413 30.0427 21.1456 30.2001 21.0835C30.3669 21.0181 30.5447 20.9855 30.7238 20.9872C30.8591 20.9844 30.9939 21.0035 31.123 21.0439C31.2219 21.0756 31.3162 21.1204 31.4033 21.1769C31.4683 21.2188 31.5273 21.2693 31.5788 21.327C31.6208 21.3761 31.6491 21.4119 31.6637 21.4346V20.002C31.6637 19.8246 31.7676 19.7359 31.9752 19.7359C32.0335 19.7351 32.0917 19.7427 32.1479 19.7586C32.1988 19.7737 32.2337 19.785 32.2526 19.7925V23.9089ZM33.8789 20.0926C33.8795 20.1397 33.8702 20.1865 33.8517 20.2298C33.8331 20.2731 33.8058 20.3121 33.7713 20.3443C33.7372 20.3783 33.6965 20.4051 33.6518 20.4231C33.607 20.4411 33.5591 20.4499 33.5109 20.449C33.4636 20.4495 33.4166 20.4405 33.3728 20.4225C33.3291 20.4045 33.2894 20.3779 33.2561 20.3443C33.2217 20.3121 33.1943 20.2731 33.1758 20.2298C33.1573 20.1865 33.148 20.1397 33.1485 20.0926C33.148 20.0455 33.1573 19.9988 33.1758 19.9555C33.1943 19.9121 33.2217 19.8731 33.2561 19.841C33.2894 19.8073 33.3291 19.7807 33.3728 19.7627C33.4166 19.7447 33.4636 19.7357 33.5109 19.7362C33.5591 19.7353 33.607 19.7441 33.6518 19.7621C33.6965 19.7801 33.7372 19.8069 33.7713 19.841C33.8058 19.8731 33.8331 19.9121 33.8517 19.9555C33.8702 19.9988 33.8795 20.0455 33.8789 20.0926ZM33.2209 21.3326C33.2173 21.2946 33.2229 21.2562 33.2372 21.2208C33.2515 21.1853 33.274 21.1538 33.303 21.1288C33.3705 21.0833 33.451 21.0612 33.5323 21.0659C33.5904 21.0652 33.6485 21.0718 33.705 21.0857C33.7404 21.0943 33.7754 21.1048 33.8097 21.1172V23.9089H33.2209V21.3326ZM35.8821 21.4289C35.7024 21.4145 35.5222 21.4497 35.3612 21.5308C35.3126 21.5613 35.2729 21.6041 35.2461 21.6548C35.2193 21.7054 35.2062 21.7623 35.2083 21.8196C35.2066 21.8665 35.2178 21.913 35.2408 21.954C35.2637 21.9949 35.2976 22.0288 35.3385 22.0517C35.4601 22.1157 35.5926 22.156 35.7292 22.1706L36.2162 22.2386C36.4956 22.2589 36.7636 22.358 36.989 22.5245C37.0646 22.5923 37.1243 22.6759 37.1639 22.7694C37.2036 22.8628 37.2221 22.9638 37.2184 23.0653C37.2213 23.1933 37.1941 23.3201 37.139 23.4357C37.0839 23.5512 37.0025 23.6522 36.9013 23.7306C36.617 23.9236 36.2757 24.0144 35.933 23.9882C35.7517 23.99 35.5706 23.974 35.3923 23.9404C35.2532 23.914 35.116 23.878 34.9818 23.8328C34.8885 23.8021 34.7984 23.7623 34.7128 23.7139C34.6468 23.6743 34.6062 23.6488 34.5911 23.6375L34.8233 23.2285C34.8589 23.2522 34.8957 23.2739 34.9337 23.2937C35.0077 23.3327 35.0844 23.3668 35.163 23.3956C35.2717 23.4358 35.3834 23.4674 35.4971 23.4899C35.6388 23.5176 35.783 23.5309 35.9274 23.5296C36.0984 23.5382 36.2691 23.5082 36.4269 23.4418C36.4821 23.4165 36.5284 23.3752 36.5597 23.3231C36.591 23.2711 36.6059 23.2108 36.6024 23.1502C36.6046 23.1009 36.594 23.0518 36.5717 23.0077C36.5494 22.9636 36.5161 22.926 36.475 22.8986C36.3324 22.8221 36.1751 22.7767 36.0136 22.7655L35.6229 22.7089C35.3595 22.6835 35.1065 22.593 34.8868 22.4456C34.7998 22.3783 34.7305 22.2908 34.6851 22.1906C34.6397 22.0904 34.6195 21.9806 34.6263 21.8709C34.626 21.7565 34.6474 21.6432 34.6893 21.5368C34.7334 21.4275 34.8045 21.3311 34.8959 21.2565C35.0082 21.167 35.1372 21.1006 35.2753 21.0612C35.464 21.0078 35.6596 20.983 35.8557 20.9876C36.0651 20.9823 36.2744 21.0034 36.4785 21.0505C36.5973 21.0792 36.7132 21.119 36.8245 21.1694C36.9793 21.2487 37.0567 21.3449 37.0567 21.4582C37.0595 21.5252 37.037 21.5909 36.9938 21.6422C36.9572 21.6847 36.9149 21.7219 36.8679 21.7526C36.8604 21.745 36.8349 21.7233 36.7915 21.6875C36.7348 21.6435 36.673 21.6064 36.6075 21.5771C36.511 21.5334 36.4105 21.4993 36.3074 21.4751C36.168 21.4425 36.0252 21.427 35.8821 21.4289ZM39.3474 21.4685C39.2217 21.4674 39.0969 21.4895 38.9793 21.5337C38.8677 21.576 38.7664 21.6416 38.682 21.7262C38.5936 21.8166 38.5251 21.9246 38.481 22.0432C38.4297 22.1857 38.4052 22.3364 38.4087 22.4877C38.405 22.6429 38.4299 22.7974 38.4823 22.9435C38.5266 23.0627 38.5962 23.1708 38.6861 23.2606C38.7711 23.3444 38.8736 23.4082 38.9862 23.4475C39.1047 23.488 39.2291 23.5081 39.3543 23.5069C39.4419 23.5077 39.5293 23.4982 39.6147 23.4786C39.6858 23.462 39.7558 23.441 39.8242 23.4157C39.876 23.397 39.9261 23.3743 39.9743 23.3478C40.0026 23.3323 40.03 23.3152 40.0564 23.2968L40.3055 23.6988C40.2716 23.7215 40.2244 23.7498 40.164 23.7837C40.0941 23.8219 40.0212 23.8541 39.946 23.88C39.8509 23.9129 39.7534 23.9384 39.6544 23.9564C39.5329 23.9784 39.4097 23.9889 39.2863 23.9879C39.0876 23.9894 38.8902 23.9559 38.7031 23.8888C38.528 23.8265 38.3679 23.7281 38.2332 23.6C38.097 23.4678 37.9899 23.3088 37.9186 23.1329C37.8381 22.9313 37.7986 22.7157 37.8025 22.4987C37.7988 22.2808 37.8383 22.0643 37.9186 21.8617C37.9908 21.6826 38.0998 21.5205 38.2385 21.3861C38.3757 21.255 38.5387 21.1538 38.717 21.0889C38.9065 21.0198 39.1069 20.9853 39.3087 20.9869C39.4214 20.9858 39.534 20.9934 39.6456 21.0096C39.73 21.022 39.8133 21.0409 39.8947 21.0662C39.9523 21.0838 40.0082 21.1066 40.0617 21.1342C40.1037 21.1568 40.1358 21.1757 40.158 21.1908C40.1958 21.2211 40.2283 21.2574 40.2543 21.2984C40.2814 21.3426 40.2952 21.3937 40.2939 21.4456C40.2909 21.5021 40.2754 21.5572 40.2486 21.6069C40.217 21.6709 40.1704 21.7263 40.1127 21.7683C40.09 21.7457 40.058 21.7174 40.0164 21.6834C39.9678 21.6447 39.915 21.6115 39.8592 21.5843C39.7876 21.5495 39.7126 21.522 39.6355 21.5022C39.5413 21.4784 39.4445 21.4671 39.3474 21.4685ZM43.7129 22.4877C43.7147 22.693 43.6773 22.8967 43.6025 23.0879C43.533 23.2666 43.428 23.4293 43.2939 23.5664C43.1582 23.7028 42.9964 23.8106 42.8183 23.8835C42.6242 23.9626 42.4163 24.0021 42.2068 23.9995C41.9963 24.0019 41.7875 23.9624 41.5924 23.8835C41.4132 23.8111 41.2504 23.7033 41.114 23.5664C40.9799 23.4293 40.8749 23.2666 40.8054 23.0879C40.7306 22.8967 40.6931 22.693 40.695 22.4877C40.6931 22.2825 40.7306 22.0787 40.8054 21.8875C40.8749 21.7089 40.9799 21.5461 41.114 21.4091C41.2504 21.2722 41.4132 21.1643 41.5924 21.092C41.7875 21.013 41.9963 20.9736 42.2068 20.9759C42.4163 20.9734 42.6242 21.0129 42.8183 21.092C42.9964 21.1648 43.1582 21.2726 43.2939 21.4091C43.428 21.5461 43.533 21.7089 43.6025 21.8875C43.6773 22.0787 43.7147 22.2825 43.7129 22.4877ZM43.1071 22.4877C43.1084 22.3465 43.0871 22.2061 43.0441 22.0716C43.0062 21.9517 42.9457 21.8402 42.8658 21.7432C42.7888 21.651 42.6921 21.5774 42.5827 21.528C42.4639 21.4754 42.3351 21.4493 42.2052 21.4515C42.0738 21.4491 41.9434 21.4752 41.823 21.528C41.7136 21.5774 41.6168 21.651 41.5399 21.7432C41.46 21.8402 41.3994 21.9517 41.3615 22.0716C41.3186 22.2061 41.2973 22.3465 41.2986 22.4877C41.2973 22.6289 41.3186 22.7694 41.3615 22.9039C41.3994 23.0238 41.46 23.1352 41.5399 23.2323C41.6168 23.3245 41.7136 23.398 41.823 23.4475C41.9434 23.5003 42.0738 23.5264 42.2052 23.5239C42.3351 23.5261 42.4639 23.5 42.5827 23.4475C42.6921 23.398 42.7888 23.3245 42.8658 23.2323C42.9457 23.1352 43.0062 23.0238 43.0441 22.9039C43.0871 22.7694 43.1084 22.6289 43.1071 22.4877ZM47.1046 21.1911C47.0718 21.3035 47.033 21.414 46.9885 21.5223C46.9338 21.6601 46.8708 21.8139 46.7998 21.9838C46.7287 22.1537 46.6503 22.3319 46.5648 22.5186C46.4809 22.7054 46.396 22.8866 46.31 23.0621C46.224 23.2377 46.1428 23.4019 46.0665 23.5547C45.9885 23.707 45.921 23.8345 45.8639 23.9373H45.2581C45.1901 23.8165 45.1193 23.6834 45.0457 23.5381C44.9721 23.3927 44.8987 23.2459 44.8255 23.0977C44.7519 22.9486 44.6811 22.8004 44.6132 22.6532L44.4245 22.2427C44.366 22.1169 44.315 22.0046 44.2716 21.9058C44.2282 21.807 44.1951 21.7315 44.1725 21.6793C44.1498 21.6264 44.1272 21.5698 44.1045 21.5094C44.0831 21.4553 44.0716 21.3978 44.0706 21.3396C44.0707 21.2713 44.0947 21.2051 44.1385 21.1527C44.1682 21.1218 44.2045 21.0981 44.2448 21.0834C44.285 21.0686 44.3281 21.0633 44.3707 21.0678C44.43 21.0655 44.4894 21.0732 44.5462 21.0904C44.5697 21.0976 44.5925 21.1071 44.6141 21.1187C44.6783 21.2962 44.7529 21.4906 44.8378 21.7019C44.9227 21.9133 45.0096 22.1219 45.0983 22.3276C45.187 22.5333 45.2728 22.7296 45.3559 22.9165C45.4389 23.1033 45.5123 23.2606 45.5761 23.3883C45.6214 23.3015 45.6808 23.1779 45.7545 23.0175C45.8281 22.857 45.9054 22.6806 45.9866 22.488C46.0678 22.2955 46.1499 22.0974 46.2329 21.8935C46.3159 21.6897 46.3893 21.5028 46.4531 21.333C46.4769 21.2607 46.5155 21.1942 46.5663 21.1376C46.5974 21.1112 46.6335 21.0914 46.6724 21.0792C46.7113 21.0671 46.7523 21.0629 46.7928 21.0668C46.8688 21.0632 46.9443 21.0809 47.0108 21.1178C47.0466 21.1357 47.0785 21.1607 47.1046 21.1911ZM50.2075 22.0631C50.2128 22.1567 50.1996 22.2504 50.1685 22.3388C50.1374 22.4273 50.089 22.5087 50.0263 22.5783C49.9408 22.6487 49.8423 22.7014 49.7364 22.7335C49.6304 22.7656 49.5192 22.7763 49.4091 22.7652H48.0841C48.0948 22.8718 48.1264 22.9752 48.1773 23.0695C48.2282 23.1637 48.2972 23.247 48.3805 23.3144C48.5742 23.4518 48.8086 23.5196 49.0458 23.5069C49.2245 23.5117 49.4029 23.4897 49.5752 23.4418C49.6722 23.415 49.7662 23.378 49.8555 23.3314L50.0366 23.7561C50.0178 23.7674 49.9791 23.7872 49.9206 23.8155C49.8475 23.8492 49.7717 23.8766 49.6941 23.8976C49.5879 23.9271 49.4801 23.9507 49.3713 23.9684C49.2394 23.99 49.1059 24.0005 48.9722 23.9999C48.7713 24.0014 48.5716 23.9707 48.3805 23.9089C48.2039 23.8523 48.041 23.7598 47.902 23.6372C47.762 23.5105 47.6526 23.3537 47.5821 23.1785C47.5009 22.9732 47.4615 22.7538 47.466 22.533C47.4634 22.3176 47.5008 22.1035 47.5764 21.9017C47.6453 21.7185 47.7503 21.551 47.885 21.4091C48.0177 21.2709 48.1778 21.162 48.355 21.0892C48.5455 21.0119 48.7496 20.9734 48.9552 20.9759C49.1387 20.9728 49.3215 21.0005 49.4959 21.058C49.6404 21.1057 49.7735 21.1828 49.8866 21.2845C49.9899 21.38 50.071 21.4969 50.1244 21.6271C50.1807 21.7655 50.2089 21.9137 50.2075 22.0631ZM49.6469 22.0064C49.6466 21.9332 49.6342 21.8605 49.6101 21.7913C49.5849 21.7186 49.5433 21.6527 49.4884 21.5988C49.4258 21.5383 49.3516 21.4911 49.2704 21.46C49.1681 21.4218 49.0595 21.4036 48.9504 21.4063C48.8187 21.4035 48.6883 21.4337 48.5711 21.494C48.4655 21.5494 48.3721 21.6254 48.2965 21.7177C48.2228 21.8081 48.166 21.911 48.1288 22.0215C48.0917 22.1283 48.0705 22.2399 48.0659 22.3528H49.2612C49.3648 22.3616 49.4684 22.3357 49.5557 22.2792C49.5901 22.2433 49.6162 22.2002 49.6319 22.1531C49.6477 22.1059 49.6528 22.0558 49.6469 22.0064ZM52.1666 21.4685C52.0831 21.4676 51.9997 21.4743 51.9174 21.4884C51.8551 21.4992 51.7936 21.5144 51.7334 21.5337C51.6914 21.5469 51.6506 21.5639 51.6117 21.5846C51.5815 21.6016 51.5605 21.6139 51.5488 21.6214V23.9089H50.9662V21.3213C50.9992 21.295 51.0342 21.2713 51.0709 21.2505C51.1469 21.2063 51.2265 21.1684 51.3088 21.1373C51.424 21.093 51.5423 21.057 51.6626 21.0297C51.8132 20.9961 51.9671 20.9799 52.1213 20.9816C52.2455 20.9794 52.3697 20.9889 52.4922 21.0099C52.5717 21.0233 52.649 21.0481 52.7215 21.0835C52.7678 21.1022 52.8074 21.1343 52.8354 21.1756C52.8635 21.217 52.8785 21.2657 52.8788 21.3157C52.8809 21.3791 52.8652 21.4419 52.8335 21.4968C52.8123 21.5346 52.7856 21.569 52.7542 21.5988C52.6854 21.5598 52.6112 21.5312 52.534 21.5138C52.4141 21.4824 52.2905 21.4671 52.1666 21.4685Z" fill="#858489"/>
</svg>
