<svg width="168" height="20" viewBox="0 0 168 20" fill="none" xmlns="http://www.w3.org/2000/svg">
<path d="M1.92071 1.82471H-0.000488281V18.1658H1.92071V1.82471Z" fill="#858489"/>
<path d="M24.6754 18.5406H24.2779L12.3534 5.42358V18.1873H10.5205V1.44873H10.9842L22.7984 14.5657V1.84621H24.6754V18.5406Z" fill="#858489"/>
<path d="M42.064 10.1498H35.1963V18.1658H33.2751V1.82471H42.064V3.54714H35.2405V8.47155H42.064V10.1498Z" fill="#858489"/>
<path d="M93.9111 18.166H91.7692L89.9805 5.82189L84.769 18.6076H84.2169L79.1379 5.77772L77.1726 18.166H75.1631L78.4092 1.3833H79.0938L84.6806 14.964L90.1571 1.3833H90.8417L93.9111 18.166Z" fill="#858489"/>
<path d="M111.388 18.1658H102.511V1.82471H111.388V3.59131H104.52V8.42738H111.388V10.1056H104.476V16.3992H111.388V18.1658Z" fill="#858489"/>
<path d="M129.594 17.2604C129.02 17.5399 128.446 17.7608 127.872 17.9229C127.297 18.0849 126.731 18.1658 126.171 18.1658H119.988V1.82471H126.944C129.02 2.03096 130.661 2.94738 131.868 4.57398C133.076 6.20058 133.679 8.05948 133.679 10.1498C133.679 11.6956 133.341 13.1014 132.663 14.3676C131.986 15.6338 130.963 16.5979 129.594 17.2604ZM131.515 8.93527C131.398 7.65449 130.901 6.52077 130.025 5.53456C129.149 4.54836 128.078 3.91504 126.812 3.63547H121.909V16.3992H126.127C127.791 16.3992 129.116 15.7367 130.102 14.4117C131.088 13.0868 131.581 11.5777 131.581 9.88482C131.581 9.56109 131.559 9.24443 131.515 8.93527Z" fill="#858489"/>
<path d="M144.2 1.82471H142.279V18.1658H144.2V1.82471Z" fill="#858489"/>
<path d="M167.906 18.3872H165.61L163.512 13.3082H157.02L154.922 18.3872H152.802L159.979 1.60449H160.509L167.906 18.3872ZM162.871 11.8287L160.155 4.80645L157.505 11.8287H162.871Z" fill="#858489"/>
<path fill-rule="evenodd" clip-rule="evenodd" d="M67.8587 13.5883C66.4146 17.3314 62.7805 19.9901 58.5302 19.9901C53.0139 19.9901 48.5356 15.5111 48.5356 9.99555C48.5356 4.47926 53.0139 0.000976562 58.5302 0.000976562C60.6589 0.000976562 62.6331 0.667807 64.2545 1.80341L64.4397 1.93662C66.9161 3.75615 68.5248 6.6892 68.5248 9.99555C68.5248 11.1732 68.321 12.3038 67.9456 13.3539L67.8587 13.5883ZM55.8016 17.0677L52.1533 17.1518C53.8624 18.7113 56.0574 19.5912 58.5302 19.5912C59.2148 19.5912 59.6972 19.5484 60.3426 19.4095L57.4402 17.5608C57.2657 17.7439 57.0192 17.8585 56.7456 17.8585C56.274 17.8585 55.8814 17.5166 55.8016 17.0677ZM62.383 15.011L59.212 14.5166C58.8202 14.5629 58.8764 14.5664 58.5302 14.5664C58.2246 14.5664 57.9261 14.5365 57.6375 14.4795L57.2129 16.0625C57.5065 16.2264 57.7045 16.5399 57.7045 16.8996C57.7045 17.0065 57.6874 17.1098 57.6546 17.2059L60.8862 19.3026C61.0045 19.2734 61.0657 19.2478 61.1826 19.2136L62.923 16.0647C62.5974 15.8453 62.3823 15.4734 62.3823 15.0516C62.3823 15.0374 62.383 15.0245 62.383 15.011ZM64.7846 14.7396C64.8109 14.8393 64.8245 14.9433 64.8245 15.0516C64.8245 15.7248 64.2773 16.272 63.6034 16.272C63.473 16.272 63.3469 16.2513 63.2286 16.2136L61.6948 19.0611C64.2132 18.1727 66.1246 16.4074 67.2738 13.9039L64.7846 14.7396ZM55.989 16.3112L53.15 13.9089C53.0674 13.9431 52.9769 13.9616 52.8828 13.9616C52.8743 13.9616 52.8658 13.9616 52.8579 13.9609C52.791 13.9644 52.724 13.9559 52.6606 13.9367L50.8254 15.7056C51.1253 16.1046 51.4017 16.4422 51.7586 16.7899L55.8109 16.6859C55.843 16.547 55.9042 16.4202 55.989 16.3112ZM56.8938 15.9521L57.2899 14.4176C56.1351 14.1304 55.2866 13.4159 54.666 12.437L53.5696 13.1017C53.581 13.1523 53.5867 13.2043 53.5867 13.2577C53.5867 13.403 53.5426 13.5384 53.4663 13.651L56.2896 16.0561C56.425 15.9827 56.581 15.9407 56.7456 15.9407C56.7962 15.9407 56.8453 15.945 56.8938 15.9521ZM52.2424 12.9642L48.9489 9.73053C48.941 9.88512 48.9339 9.83953 48.9339 9.99555C48.9339 12.0609 49.5024 13.7728 50.6045 15.3993L52.3963 13.7664C52.2616 13.6382 52.1783 13.4572 52.1783 13.2577C52.1783 13.153 52.2018 13.0533 52.2424 12.9642ZM64.5195 8.62271L63.0498 9.17412C63.1146 9.48118 63.1018 9.66855 63.1018 9.99555C63.1018 12.0281 61.9947 13.6709 60.1574 14.2644L62.4607 14.6213C62.6345 14.1589 63.0812 13.8305 63.6034 13.8305C63.6739 13.8305 63.743 13.8362 63.81 13.8476L65.0389 9.09432C64.8152 9.00242 64.6314 8.8343 64.5195 8.62271ZM65.9009 9.05373C65.7741 9.1207 65.6316 9.16129 65.4799 9.16913L64.2089 13.9908C64.3621 14.0784 64.4939 14.1981 64.5965 14.3406L67.4989 13.3646C67.5502 13.2349 67.5573 13.2378 67.6029 13.1053L65.9009 9.05373ZM58.5302 5.70392C60.9382 5.70392 62.8218 7.58756 62.8218 9.99555C62.8218 12.4028 60.9382 14.2864 58.5302 14.2864C56.1222 14.2864 54.2386 12.4028 54.2386 9.99555C54.2386 7.58756 56.1222 5.70392 58.5302 5.70392ZM54.1039 6.105C53.9486 6.48686 53.6052 6.77184 53.1899 6.84736L53.0752 12.5802C53.2191 12.6208 53.3445 12.707 53.435 12.821L54.5065 12.172C54.1282 11.5066 53.9593 10.8148 53.9593 9.99555C53.9593 8.56073 54.6212 7.27907 55.657 6.44055L54.1039 6.105ZM52.1027 6.50682L48.9909 9.32374L52.4426 12.7077C52.5295 12.6379 52.6342 12.5888 52.7475 12.5667L52.8038 6.8559C52.5316 6.81885 52.2873 6.69205 52.1027 6.50682ZM66.3576 8.57639C66.3234 8.64835 66.2821 8.71603 66.2336 8.77801L67.776 12.4791C68.0482 11.5942 68.1265 10.9644 68.1265 9.99555C68.1265 9.54387 68.0945 9.10004 68.0332 8.66475L66.3576 8.57639ZM60.3547 3.77753L58.4803 5.42535C58.5202 5.42464 58.4896 5.42392 58.5302 5.42392C60.6497 5.42392 62.4343 6.86943 62.9508 8.82788L64.407 8.25794C64.4034 8.22018 64.4013 8.18244 64.4013 8.14468C64.4013 7.91741 64.4754 7.70725 64.6 7.53698L61.4412 3.82454C61.4355 3.82881 61.4041 3.83808 61.3543 3.84877C61.2217 3.9193 61.0714 3.95991 60.9111 3.95991C60.7031 3.95991 60.5107 3.89223 60.3547 3.77753ZM53.3374 4.47428L55.1298 1.00407C52.2267 2.02854 49.4027 5.09551 49.0023 8.80153L51.8733 6.18766C51.7914 6.02309 51.7451 5.83856 51.7451 5.64264C51.7451 4.96655 52.2944 4.41799 52.9698 4.41799C53.098 4.41799 53.2213 4.43794 53.3374 4.47428ZM65.5383 7.12448C66.052 7.18005 66.4523 7.61606 66.4523 8.14468C66.4523 8.16391 66.4523 8.18385 66.4509 8.20308L67.9719 8.29641C67.5801 5.93402 66.5207 4.24417 64.7853 2.69536L65.5383 7.12448ZM61.8501 2.95396C61.8515 2.97533 61.8522 2.99672 61.8522 3.0188C61.8522 3.21258 61.7931 3.39282 61.6927 3.54314L64.8793 7.27693C64.9577 7.22706 65.0439 7.18789 65.1344 7.16082L64.2873 2.33915C64.1947 2.26933 64.1006 2.20022 64.0052 2.13396L61.8501 2.95396ZM59.9793 2.887L56.1144 0.708407C55.9128 0.758276 55.8472 0.783224 55.6506 0.845917L53.715 4.67091C54.0063 4.89461 54.1944 5.24725 54.1944 5.64264C54.1944 5.66045 54.1944 5.67755 54.1937 5.69465L56.0489 6.15915C56.6701 5.71175 57.1958 5.55359 58.0023 5.44673L60.1446 3.5638C60.0349 3.40992 59.9707 3.22184 59.9707 3.0188C59.9707 2.97392 59.9736 2.92974 59.9793 2.887ZM61.7105 2.52223L63.6012 1.844C61.8294 0.862286 60.463 0.399227 58.5302 0.399227C57.862 0.399227 57.3718 0.469033 56.7406 0.601543L60.146 2.47165C60.3163 2.2337 60.5962 2.07768 60.9111 2.07768C61.2481 2.07768 61.5438 2.25578 61.7105 2.52223Z" fill="#858489"/>
</svg>
