<svg width="161" height="20" viewBox="0 0 161 20" fill="none" xmlns="http://www.w3.org/2000/svg">
<path d="M13.8153 15.0281H3.45361V10.8631H13.4491V7.61957H3.45361V3.37514H13.8153V0H0V18.4556H13.8153V15.0281ZM22.9381 8.14707C23.4378 8.1387 23.9341 8.23143 24.3972 8.4197C24.8602 8.60796 25.2804 8.88786 25.6325 9.24261C25.9847 9.59735 26.2615 10.0196 26.4463 10.484C26.6312 10.9484 26.7202 11.4454 26.7082 11.9451C26.727 12.4476 26.6428 12.9487 26.4606 13.4175C26.2785 13.8862 26.0023 14.3128 25.6491 14.6708C25.296 15.0288 24.8732 15.3107 24.407 15.4992C23.9407 15.6876 23.4408 15.7787 22.9381 15.7666C22.4407 15.7723 21.9474 15.6763 21.4884 15.4845C21.0294 15.2928 20.6144 15.0093 20.2688 14.6515C19.9233 14.2937 19.6544 13.8691 19.4788 13.4037C19.3031 12.9383 19.2243 12.442 19.2473 11.9451C19.2176 11.4477 19.2919 10.9496 19.4655 10.4825C19.639 10.0154 19.908 9.58963 20.2552 9.23228C20.6025 8.87494 21.0204 8.59388 21.4823 8.40703C21.9442 8.22019 22.44 8.13165 22.9381 8.14707ZM26.9192 0.0261577V7.22373C26.1545 5.87925 24.0192 5.14075 22.6468 5.14075C18.8506 5.14075 16.0291 7.46089 16.0291 11.9416C16.0291 16.2139 18.9064 18.7425 22.7262 18.7425C23.5456 18.7888 24.363 18.6211 25.098 18.2559C25.833 17.8907 26.4603 17.3405 26.9183 16.6595L27.1293 18.4521H30.1348V0.0261577H26.9192ZM33.4053 5.45725V12.286C33.4053 16.3203 35.6722 18.6666 38.7841 18.6666C39.615 18.6762 40.4383 18.5069 41.198 18.1702C41.9577 17.8335 42.6361 17.3373 43.1872 16.7153L43.3982 18.4844H46.2755V5.45725H43.0817V12.1012C43.1114 12.5603 43.0482 13.0206 42.8958 13.4547C42.7434 13.8888 42.505 14.2877 42.1949 14.6275C41.8847 14.9673 41.5092 15.241 41.0907 15.4322C40.6723 15.6235 40.2196 15.7283 39.7597 15.7405C37.7029 15.7405 36.6209 14.2373 36.6209 12.2598V5.45899L33.4053 5.45725ZM70.0532 18.4556V10.6521C70.0879 9.92496 69.9707 9.1986 69.7091 8.51931C69.4475 7.84002 69.0472 7.22269 68.5337 6.7067C68.0203 6.19071 67.4049 5.78737 66.7269 5.52241C66.0489 5.25744 65.3232 5.13666 64.5959 5.16778C63.5581 5.14076 62.5373 5.43536 61.6735 6.01119C60.8097 6.58702 60.1451 7.4159 59.7708 8.38423C59.4289 7.39427 58.7718 6.54368 57.9004 5.96275C57.0289 5.38182 55.991 5.10257 54.9457 5.16778C54.0815 5.13077 53.2244 5.33887 52.4734 5.76806C51.7224 6.19725 51.108 6.83004 50.7012 7.59341L50.6751 5.43109H49.4588V18.4556H50.7509V10.7305C50.7158 10.167 50.7983 9.60228 50.9931 9.07232C51.188 8.54235 51.4909 8.0587 51.8826 7.65208C52.2744 7.24547 52.7465 6.92478 53.2688 6.71039C53.7912 6.496 54.3524 6.3926 54.9169 6.40675C55.4827 6.39196 56.0454 6.49472 56.5695 6.70852C57.0936 6.92233 57.5676 7.24254 57.9616 7.6489C58.3556 8.05527 58.661 8.53895 58.8585 9.06938C59.056 9.59981 59.1413 10.1654 59.109 10.7305V18.4556H60.4012V10.7305C60.3685 10.1641 60.4533 9.59703 60.6503 9.06496C60.8473 8.53289 61.1523 8.04733 61.546 7.6388C61.9397 7.23026 62.4137 6.90759 62.9381 6.69106C63.4625 6.47453 64.0261 6.36883 64.5933 6.3806C65.155 6.36032 65.7146 6.4578 66.2364 6.66676C66.7581 6.87573 67.2303 7.19155 67.6227 7.59394C68.015 7.99632 68.3189 8.47635 68.5146 9.00318C68.7104 9.53001 68.7937 10.092 68.7593 10.6529V18.4556H70.0532ZM79.5709 18.6404C80.6343 18.6663 81.69 18.4548 82.6615 18.0215C83.6329 17.5882 84.4956 16.9439 85.1868 16.1355L84.2643 15.3978C83.6696 16.0448 82.9427 16.5562 82.1329 16.8974C81.323 17.2386 80.4493 17.4016 79.5709 17.3753C78.2321 17.4234 76.9278 16.9452 75.9373 16.0434C74.9467 15.1415 74.3488 13.8876 74.2714 12.5502H86.0038C86.5051 7.46176 83.2355 5.22096 79.5709 5.22096C78.6902 5.21138 77.8166 5.37956 77.0024 5.71546C76.1882 6.05135 75.4502 6.54804 74.8324 7.17581C74.2147 7.80358 73.7299 8.54953 73.4071 9.36901C73.0844 10.1885 72.9303 11.0647 72.954 11.9451C72.9107 12.8292 73.0517 13.7126 73.3679 14.5393C73.6842 15.3661 74.1688 16.1181 74.791 16.7476C75.4132 17.3771 76.1595 17.8705 76.9825 18.1963C77.8055 18.5222 78.6863 18.6734 79.5709 18.6404ZM74.2723 11.4167C74.3237 10.0541 74.9076 8.76604 75.8986 7.82938C76.8895 6.89271 78.2084 6.38222 79.5717 6.40763C82.7106 6.40763 84.8189 8.20026 84.845 11.4167H74.2723ZM89.3563 5.43196V18.4556H90.6484V11.2057C90.6185 10.5902 90.7146 9.975 90.9308 9.3979C91.147 8.8208 91.4788 8.29393 91.9058 7.84959C92.3328 7.40526 92.8461 7.05281 93.4142 6.81385C93.9822 6.57489 94.5931 6.45446 95.2094 6.45994C98.0308 6.43378 99.8496 8.01542 99.8496 10.9686V18.4556H101.142V10.9415C101.142 7.32923 98.7423 5.19393 95.2625 5.19393C94.3306 5.16322 93.4075 5.38458 92.5908 5.83466C91.7742 6.28475 91.0941 6.94688 90.6223 7.75123V5.43109L89.3563 5.43196ZM105.677 1.63569V5.43196H102.907V6.51313H105.675V14.4475C105.675 17.0048 106.571 18.6396 109.337 18.6396C110.193 18.6072 111.031 18.3819 111.789 17.9804L111.34 16.9254C110.718 17.2428 110.034 17.4213 109.335 17.4486C107.305 17.4486 106.936 16.2096 106.936 14.4431V6.50877H111.365V5.42761H106.936V1.4988L105.677 1.63569ZM120.362 18.6378C121.245 18.674 122.126 18.5258 122.949 18.2027C123.772 17.8796 124.518 17.3887 125.141 16.7612C125.763 16.1337 126.248 15.3834 126.565 14.5581C126.882 13.7328 127.023 12.8506 126.98 11.9678C127.025 11.0795 126.886 10.1916 126.571 9.35969C126.256 8.52781 125.773 7.76995 125.152 7.13369C124.53 6.49744 123.784 5.99653 122.96 5.66242C122.136 5.32831 121.251 5.16822 120.362 5.19219C119.473 5.16822 118.589 5.32831 117.764 5.66242C116.94 5.99653 116.194 6.49744 115.572 7.13369C114.951 7.76995 114.468 8.52781 114.153 9.35969C113.839 10.1916 113.699 11.0795 113.744 11.9678C113.701 12.8505 113.842 13.7327 114.158 14.5581C114.474 15.3834 114.959 16.1338 115.581 16.7616C116.203 17.3893 116.949 17.8805 117.772 18.204C118.595 18.5275 119.475 18.6761 120.359 18.6404L120.362 18.6378ZM120.362 17.3727C119.647 17.4027 118.933 17.2829 118.266 17.0211C117.6 16.7594 116.995 16.3613 116.491 15.8525C115.987 15.3436 115.595 14.7352 115.34 14.0661C115.085 13.397 114.972 12.682 115.009 11.9669C114.97 11.2439 115.081 10.5207 115.333 9.84207C115.586 9.16348 115.975 8.54408 116.477 8.02236C116.979 7.50063 117.583 7.08775 118.251 6.80936C118.92 6.53098 119.638 6.39305 120.362 6.40414C121.086 6.39305 121.804 6.53098 122.473 6.80936C123.141 7.08775 123.745 7.50063 124.247 8.02236C124.749 8.54408 125.139 9.16348 125.391 9.84207C125.643 10.5207 125.754 11.2439 125.715 11.9669C125.752 12.6825 125.64 13.3981 125.384 14.0678C125.129 14.7374 124.737 15.3463 124.233 15.8555C123.728 16.3647 123.123 16.7629 122.456 17.0247C121.789 17.2864 121.075 17.4058 120.359 17.3753L120.362 17.3727ZM129.959 5.42761V18.4556H131.251V10.8631C131.245 9.71652 131.694 8.61439 132.5 7.79876C133.306 6.98314 134.402 6.52073 135.549 6.51313C136.33 6.50602 137.097 6.71743 137.764 7.12346L138.343 6.06845C137.506 5.54799 136.535 5.28231 135.549 5.30379C134.669 5.25326 133.793 5.45769 133.026 5.89257C132.259 6.32745 131.634 6.97431 131.225 7.75559L131.173 5.43545L129.959 5.42761ZM150.023 6.95692C148.696 5.76382 146.955 5.13785 145.172 5.21312C142.535 5.18696 139.978 6.29428 140.004 8.85157C140.03 11.4621 142.533 11.9364 145.067 12.3584C147.202 12.701 149.364 13.0698 149.311 14.9418C149.232 16.9986 146.833 17.4198 145.251 17.4198C144.337 17.4544 143.428 17.2717 142.598 16.8867C141.769 16.5018 141.042 15.9254 140.479 15.2051L139.527 16.057C140.66 17.8008 142.927 18.6675 145.222 18.6675C147.517 18.6675 150.495 17.9028 150.574 15.029C150.706 11.9974 147.516 11.6016 145.196 11.2057C143.561 10.9154 141.294 10.5727 141.241 8.83239C141.188 7.17141 143.139 6.40675 145.169 6.43291C145.903 6.38189 146.64 6.47674 147.337 6.71199C148.034 6.94725 148.677 7.31824 149.23 7.80354L150.023 6.95692Z" fill="#858489"/>
</svg>
