<svg width="95" height="24" viewBox="0 0 95 24" fill="none" xmlns="http://www.w3.org/2000/svg">
<path d="M13.5214 0C14.695 0 15.3875 0.364523 15.8686 1.02066C16.3496 1.71326 16.3788 2.28191 16.3788 3.48483C16.3788 3.48483 16.3496 15.0256 16.3205 15.6307C16.2257 17.1617 15.7811 19.0281 15.4822 19.6259C15.0668 20.5591 14.3378 21.6672 13.2007 22.3962C11.5169 23.4534 9.47594 23.7159 8.30237 23.7159C6.53111 23.7159 5.11701 23.1764 4.30791 22.8118C3.52797 22.4765 2.80634 21.9661 2.17947 21.2809C1.51615 20.5883 1.00591 19.7207 0.619581 18.6344C0.211386 17.5554 0 16.265 0 14.785C0 13.2832 0.211386 12.0147 0.597713 10.9357C0.991329 9.84943 1.50157 8.94539 2.1576 8.26007C2.78447 7.56747 3.5061 7.05717 4.28604 6.72909C5.10243 6.39373 5.91882 6.21875 6.72792 6.21875C7.71926 6.21875 8.6814 6.43018 9.61442 6.81657C10.3944 7.12277 11.3274 7.69145 11.8376 8.26007V0H13.5214ZM4.50472 14.8142C4.50472 15.3245 4.53387 15.8349 4.68695 16.4691C4.84002 17.0961 5.0514 17.6429 5.37942 18.1241C5.68556 18.6052 6.07189 18.9989 6.55298 19.2686C7.03408 19.5749 7.60991 19.7134 8.26596 19.7134C8.92924 19.7134 9.46138 19.5603 9.94977 19.2686C10.46 18.9989 10.8536 18.6052 11.1525 18.1241C11.4877 17.6429 11.6919 17.1034 11.8449 16.4691C11.998 15.8422 12.0272 15.3027 12.0272 14.8142V14.6611C12.0272 14.3549 11.9688 13.9394 11.8449 13.4217C11.6919 12.8239 11.4805 12.2552 11.1525 11.7668C10.8463 11.2856 10.46 10.8919 9.94977 10.6222C9.47594 10.3306 8.92924 10.2066 8.26596 10.2066C7.60262 10.2066 7.03408 10.3306 6.55298 10.6295C6.07189 10.8992 5.67828 11.2929 5.37942 11.7741C5.04412 12.2552 4.84002 12.8312 4.68695 13.429C4.56303 13.9685 4.50472 14.2747 4.50472 14.6028V14.8142Z" fill="#858489"/>
<path d="M30.6436 22.7316C29.951 23.1471 29.1419 23.4825 28.4787 23.6355C27.757 23.847 26.6418 23.971 25.6286 24.0001H25.2423C22.1808 24.0001 19.8337 22.7097 19.0538 21.6234C18.5143 20.8433 18.3904 20.2747 18.3904 19.3123C18.3904 19.3123 18.303 17.6282 18.303 15.7691C18.303 14.3257 18.3613 12.7946 18.5435 11.8907C18.8788 10.3888 19.6879 8.88699 20.8906 8.07775C22.4505 7.05708 24.0468 6.51758 26.1461 6.51758C27.0208 6.51758 28.158 6.51758 29.9292 7.14459C30.5269 7.38514 31.2194 7.77153 31.6713 8.23086C32.0066 8.53701 32.4513 9.13482 32.7282 9.7327C32.9979 10.3305 33.1438 11.023 33.1438 11.8323C33.1438 12.7363 32.9032 13.4581 32.6626 14.0559C31.941 15.8639 30.3811 16.4909 29.8126 16.7024C29.7834 16.7024 29.7542 16.7315 29.7251 16.7315C29.0983 16.9429 28.4349 17.0377 27.7716 17.1179C27.1083 17.2418 26.4814 17.3293 25.8473 17.3877C25.1839 17.446 24.7903 17.446 24.3165 17.599C23.8354 17.723 23.4418 17.9053 23.1721 18.1385C22.9024 18.35 22.7202 18.6197 22.7202 18.9186C22.7202 19.254 22.7785 19.6113 22.9316 19.881C23.3471 20.5444 24.6445 20.7266 25.9347 20.7266C26.8094 20.7266 27.4655 20.5444 27.9465 20.1872C28.4568 19.8227 28.7556 19.3488 28.8212 18.6854H33.1729C33.0854 19.3779 32.8667 20.3695 32.4221 21.0621C31.9702 21.7036 31.3433 22.3378 30.6436 22.7316ZM24.3748 14.2527C24.681 14.1944 25.0017 14.1288 25.3662 14.0997C25.7015 14.0705 26.0586 14.0049 26.3866 13.9466C26.722 13.8883 27.05 13.7935 27.378 13.706C27.6841 13.582 27.9757 13.4945 28.1871 13.2904C28.5734 12.904 28.9671 12.5103 28.9671 11.7594V11.6063C28.9671 11.271 28.8723 11.0085 28.7556 10.7679C28.6026 10.4982 28.4203 10.3232 28.1871 10.1701C27.9465 10.017 27.6477 9.90037 27.3124 9.83471C26.9771 9.77639 26.649 9.74726 26.2919 9.74726C25.4536 9.74726 24.7903 9.90037 24.3092 10.192C23.8281 10.4617 23.5001 10.819 23.2523 11.2126C23.0409 11.599 22.8878 12.0219 22.8368 12.4155C22.8077 12.8311 22.7785 13.1665 22.7785 13.4071V14.8505C22.9607 14.6975 23.194 14.5808 23.471 14.4861C23.7334 14.4058 24.0396 14.311 24.3748 14.2527Z" fill="#858489"/>
<path d="M59.4214 7.70619C59.4214 8.39879 59.1809 8.87269 58.882 9.26635C58.6123 9.57257 57.9199 9.89328 57.0743 9.92976H55.8716V18.0805C55.8716 18.8606 56.0247 19.4001 56.2579 19.6771C56.5276 19.9469 57.067 19.976 57.8543 19.976H59.4141V23.7306H56.5641C55.8425 23.7306 55.15 23.7015 54.5231 23.5775C53.8598 23.49 53.2912 23.3077 52.781 23.0089C52.2999 22.7026 51.9063 22.3163 51.6147 21.7768C51.345 21.2664 51.1992 20.5739 51.1992 19.7062V0.248047H52.9413C53.9983 0.248047 54.8948 0.692764 55.2885 1.23955C55.7695 1.90298 55.8862 2.40602 55.8862 2.92364V6.70739H59.4214V7.70619Z" fill="#858489"/>
<path d="M65.6389 5.92734V6.73658H69.1815V7.72806C69.1815 8.44986 68.9409 8.93104 68.6421 9.28823C68.3724 9.62357 67.6799 9.9517 66.8052 9.9517H65.6025V23.7161H60.9155V4.30886C60.9155 3.43401 61.0686 2.74871 61.331 2.23837C61.6372 1.69888 62.0235 1.27604 62.5337 1.00629C63.0148 0.70009 63.5907 0.525118 64.2467 0.408471C64.91 0.320985 65.5952 0.255371 66.3168 0.255371H69.1669V4.03912H67.607C66.7979 4.03912 66.2876 4.06828 66.0107 4.34532C65.7556 4.60778 65.6389 5.14727 65.6389 5.92734Z" fill="#858489"/>
<path d="M70.6902 1.23968V0.277344H75.348V4.09025H73.6352C72.8842 4.09025 71.8274 3.84967 71.3538 3.31017C70.8726 2.77797 70.6902 1.9906 70.6902 1.23968ZM75.348 10.3163V23.7234H70.6902V6.77314H72.2504C73.3363 6.77314 73.9632 7.04291 74.6268 7.85943C75.3119 8.72699 75.348 9.38312 75.348 10.3163Z" fill="#858489"/>
<path d="M79.0363 6.77295C80.4509 6.77295 81.9522 7.18848 82.6741 7.58222C83.3661 7.9686 83.993 8.7268 84.4451 9.41941L85.6475 11.191L88.5926 6.77295H93.7607L88.1696 14.705L94.4535 23.716H92.6166C91.8947 23.7451 90.0945 23.4098 89.1903 22.9067C88.6217 22.5714 87.7181 21.5871 87.594 21.4341L85.5824 18.3721L82.0396 23.7233H76.8423L82.9438 14.7997L77.3527 6.78024L79.0363 6.77295Z" fill="#858489"/>
<path d="M47.8973 18.6344C47.9629 18.4302 48.0285 18.2261 48.0941 18.0146C47.5766 18.1022 46.8258 18.1896 46.0021 18.2479C45.0909 18.3063 44.2746 18.3136 43.7498 18.2771C43.8008 18.4813 43.8518 18.6927 43.8955 18.9041C43.7716 18.9405 43.6987 18.977 43.6987 19.0135C43.706 19.1374 44.7119 19.1811 45.9365 19.1009C47.1684 19.0208 48.1524 18.8604 48.1451 18.7291C48.1378 18.6854 48.0504 18.6562 47.8973 18.6344Z" fill="#858489"/>
<path d="M47.4673 19.83C47.5184 19.6842 47.584 19.5457 47.635 19.3999C47.3361 19.4947 46.6656 19.5821 45.8783 19.6332C44.9963 19.6842 44.2456 19.6769 44.0123 19.604C44.0341 19.7644 44.0488 19.9102 44.0633 20.0633C43.9758 20.0925 43.9321 20.1216 43.9321 20.1435C43.9394 20.2529 44.7776 20.282 45.8127 20.2164C46.8477 20.1508 47.6788 20.0123 47.6642 19.9102C47.6569 19.8664 47.5913 19.8446 47.4673 19.83Z" fill="#858489"/>
<path d="M47.1683 20.5078C47.0006 20.588 46.3883 20.6828 45.6521 20.7265C44.9013 20.7776 44.2744 20.7557 44.1068 20.6974C44.1141 20.8432 44.1214 20.9817 44.1214 21.1203C44.0339 21.1421 43.9829 21.1786 43.9902 21.2004C43.9975 21.2879 44.6972 21.3171 45.5646 21.2587C46.4321 21.2077 47.1245 21.0911 47.1245 20.9963C47.1245 20.9744 47.0662 20.9526 46.9641 20.938C47.037 20.7995 47.11 20.6536 47.1683 20.5078Z" fill="#858489"/>
<path d="M45.4698 21.7328C44.9013 21.7693 44.4056 21.7693 44.1287 21.7401C44.1287 21.886 44.1214 22.0172 44.1141 22.1339C44.0266 22.1557 43.9829 22.1848 43.9829 22.1995C43.9902 22.2723 44.566 22.2942 45.2803 22.2578C45.9874 22.214 46.5633 22.1192 46.556 22.0463C46.556 22.0244 46.4977 22.0026 46.3883 21.9953C46.4685 21.8714 46.5487 21.7474 46.6216 21.6162C46.33 21.66 45.9218 21.7037 45.4698 21.7328Z" fill="#858489"/>
<path d="M44.0994 22.7026C44.3691 24.496 45.6957 22.8994 45.6957 22.8994C45.7832 22.7974 45.8707 22.6953 45.9581 22.5859C45.7249 22.6224 45.4041 22.6588 45.047 22.6807C44.6679 22.7099 44.3326 22.7171 44.0994 22.7026Z" fill="#858489"/>
<path d="M48.3344 17.1397C48.852 15.1202 49.0415 13.4653 49.0415 13.4653C49.6101 8.34009 47.1172 7.12984 47.1172 7.12984C45.8342 6.29874 43.334 7.7714 43.334 7.7714C40.7828 9.22221 38.6034 9.03997 38.6034 9.03997C41.2567 8.39841 41.7377 7.88804 41.7377 7.88804C40.9359 7.87348 39.0845 6.97672 39.0845 6.97672C35.6367 5.77383 35.1556 10.2137 35.1556 10.2137C34.6016 15.3389 36.7884 19.006 36.7884 19.006C38.3993 22.3742 39.1282 21.8857 39.1282 21.8857C39.5656 21.616 39.5729 20.486 39.5729 20.486C39.7988 18.0655 40.3747 17.2344 40.3747 17.2344C41.4535 15.3462 42.6343 16.1991 42.955 16.4908C42.9915 16.5199 43.0497 16.6147 43.0789 16.6512C43.2466 16.9501 43.3559 17.198 43.4872 17.5188C43.3413 17.5625 43.2612 17.6063 43.2612 17.6427C43.2757 17.7958 44.4566 17.8395 45.9071 17.7447C47.3577 17.6573 48.5312 17.4532 48.5167 17.3073C48.5167 17.2709 48.4365 17.2417 48.3053 17.2198C48.3199 17.1907 48.3271 17.1615 48.3344 17.1397Z" fill="#858489"/>
</svg>
