<svg width="20" height="20" viewBox="0 0 20 20" fill="none" xmlns="http://www.w3.org/2000/svg">
<g id="incoming-call--android-phone-mobile-device-smartphone-iphone-ringing-incoming-call" clip-path="url(#clip0_765_4506)">
<g id="incoming-call--android-phone-mobile-device-smartphone-iphone-ringing-incoming-call_2">
<path id="Vector" d="M9.3277 18.3187C8.58713 18.7955 7.70566 19.0045 6.82981 18.9109C5.95398 18.8174 5.13654 18.4269 4.51341 17.8044L3.97055 17.2615C3.72977 17.0181 3.59473 16.6895 3.59473 16.3472C3.59473 16.0048 3.72977 15.6764 3.97055 15.4329L6.25627 13.1615C6.49723 12.9216 6.8234 12.7869 7.16341 12.7869C7.50343 12.7869 7.8296 12.9216 8.07055 13.1615C8.31394 13.4023 8.64248 13.5373 8.98484 13.5373C9.3272 13.5373 9.65574 13.4023 9.89913 13.1615L13.542 9.51863C13.7828 9.27526 13.9178 8.94672 13.9178 8.60435C13.9178 8.26199 13.7828 7.93345 13.542 7.69006C13.3021 7.44912 13.1674 7.12295 13.1674 6.78292C13.1674 6.4429 13.3021 6.11673 13.542 5.87578L15.7421 3.59006C15.9853 3.34929 16.3139 3.21423 16.6563 3.21423C16.9986 3.21423 17.3272 3.34929 17.5706 3.59006L18.1135 4.13292C18.7471 4.74726 19.1509 5.56035 19.2576 6.4365C19.3642 7.31265 19.1671 8.19885 18.6992 8.94721C16.2081 12.6455 13.026 15.8277 9.3277 18.3187Z" stroke="black" stroke-width="1.25" stroke-linecap="round" stroke-linejoin="round"/>
<path id="Vector_2" d="M2.85718 7.85706H7.85718V2.85706" stroke="black" stroke-width="1.25" stroke-linecap="round" stroke-linejoin="round"/>
<path id="Vector_3" d="M7.85717 7.85709L0.714355 0.714233" stroke="black" stroke-width="1.25" stroke-linecap="round" stroke-linejoin="round"/>
</g>
</g>
<defs>
<clipPath id="clip0_765_4506">
<rect width="20" height="20" fill="white"/>
</clipPath>
</defs>
</svg>
