<svg width="20" height="20" viewBox="0 0 20 20" fill="none" xmlns="http://www.w3.org/2000/svg">
<g id="shopping-cart-2--shopping-cart-checkout" clip-path="url(#clip0_765_4546)">
<g id="shopping-cart-2--shopping-cart-checkout_2">
<path id="Vector" d="M17.3588 10.71H5.74215L4.32202 3.60938H18.5233C18.6272 3.60976 18.7296 3.63291 18.8236 3.67721C18.9175 3.72151 19.0006 3.78588 19.0669 3.86578C19.1334 3.94566 19.1814 4.03915 19.2076 4.13961C19.2339 4.24008 19.2379 4.34509 19.2191 4.44725L18.0546 10.1278C18.0275 10.292 17.9423 10.4411 17.8146 10.5479C17.687 10.6547 17.5252 10.7123 17.3588 10.71Z" stroke="black" stroke-width="1.25" stroke-linecap="round" stroke-linejoin="round"/>
<path id="Vector_2" d="M4.32205 3.6093L3.7256 1.3371C3.69286 1.17671 3.60571 1.03256 3.47891 0.929048C3.3521 0.825533 3.19343 0.769009 3.02973 0.769043H0.771729" stroke="black" stroke-width="1.25" stroke-linecap="round" stroke-linejoin="round"/>
<path id="Vector_3" d="M5.74219 10.71L6.33864 13.6922C6.37138 13.8526 6.45853 13.9968 6.58533 14.1003C6.71214 14.2038 6.87082 14.2603 7.03451 14.2603H15.6831" stroke="black" stroke-width="1.25" stroke-linecap="round" stroke-linejoin="round"/>
<path id="Vector_4" d="M14.973 19.2307C14.5809 19.2307 14.2629 18.9127 14.2629 18.5206C14.2629 18.1285 14.5809 17.8105 14.973 17.8105C15.3652 17.8105 15.6831 18.1285 15.6831 18.5206C15.6831 18.9127 15.3652 19.2307 14.973 19.2307Z" stroke="black" stroke-width="1.25" stroke-linecap="round" stroke-linejoin="round"/>
<path id="Vector_5" d="M7.87242 19.2307C7.48026 19.2307 7.16235 18.9127 7.16235 18.5206C7.16235 18.1285 7.48026 17.8105 7.87242 17.8105C8.26457 17.8105 8.58248 18.1285 8.58248 18.5206C8.58248 18.9127 8.26457 19.2307 7.87242 19.2307Z" stroke="black" stroke-width="1.25" stroke-linecap="round" stroke-linejoin="round"/>
</g>
</g>
<defs>
<clipPath id="clip0_765_4546">
<rect width="20" height="20" fill="white"/>
</clipPath>
</defs>
</svg>
