<svg width="20" height="20" viewBox="0 0 20 20" fill="none" xmlns="http://www.w3.org/2000/svg">
<g id="investment-selection" clip-path="url(#clip0_765_4590)">
<g id="investment-selection_2">
<path id="Vector 2494" d="M9.05443 5.28442C8.99171 5.10697 8.89494 4.94563 8.77196 4.80823C8.51037 4.51596 8.13023 4.33203 7.70714 4.33203H6.60137C5.8971 4.33203 5.32617 4.90296 5.32617 5.60723C5.32617 6.20649 5.74344 6.7249 6.32886 6.85297L8.01241 7.22125C8.66826 7.36472 9.13571 7.9459 9.13571 8.61725C9.13571 9.40623 8.49611 10.0463 7.70714 10.0463H6.75476C6.13274 10.0463 5.60357 9.64882 5.40746 9.09396" stroke="black" stroke-width="1.25" stroke-linecap="round" stroke-linejoin="round"/>
<path id="Vector 2495" d="M7.23096 4.33215V2.90356" stroke="black" stroke-width="1.25" stroke-linecap="round" stroke-linejoin="round"/>
<path id="Vector 2496" d="M7.23096 11.475V10.0464" stroke="black" stroke-width="1.25" stroke-linecap="round" stroke-linejoin="round"/>
<path id="Vector" d="M9.95557 19.284V11.784C9.95557 11.3104 10.1437 10.8562 10.4786 10.5213C10.8135 10.1864 11.2677 9.99829 11.7413 9.99829C12.2149 9.99829 12.6691 10.1864 13.004 10.5213C13.3389 10.8562 13.527 11.3104 13.527 11.784V15.7126H16.3842C17.1419 15.7126 17.8686 16.0136 18.4045 16.5495C18.9402 17.0852 19.2414 17.8119 19.2414 18.5697V19.284" stroke="black" stroke-width="1.25" stroke-linecap="round" stroke-linejoin="round"/>
<path id="Ellipse 344" d="M7.23225 13.6625C3.65719 13.6625 0.759033 10.7643 0.759033 7.18928C0.759033 3.61422 3.65719 0.716064 7.23225 0.716064C10.8073 0.716064 13.7055 3.61422 13.7055 7.18928C13.7055 7.48982 13.685 7.78556 13.6453 8.07522" stroke="black" stroke-width="1.25" stroke-linecap="round"/>
</g>
</g>
<defs>
<clipPath id="clip0_765_4590">
<rect width="20" height="20" fill="white"/>
</clipPath>
</defs>
</svg>
