<svg width="20" height="20" viewBox="0 0 20 20" fill="none" xmlns="http://www.w3.org/2000/svg">
<g id="business-user-curriculum">
<g id="business-user-curriculum_2">
<path id="Vector" d="M5.85376 5.21516C5.85376 6.12278 6.58952 6.85855 7.49713 6.85855C7.72659 6.85855 7.94505 6.81152 8.14343 6.72659C8.72975 6.47555 9.14052 5.89333 9.14052 5.21516C9.14052 4.30755 8.40475 3.57178 7.49713 3.57178C6.58952 3.57178 5.85376 4.30755 5.85376 5.21516Z" stroke="black" stroke-width="1.25" stroke-linecap="round" stroke-linejoin="round"/>
<path id="Vector_2" d="M5 8.4856C5.26113 7.98893 5.62814 7.57843 6.06574 7.29359C6.50334 7.00875 6.99681 6.85913 7.49873 6.85913C8.00064 6.85913 8.49411 7.00875 8.93171 7.29359C9.36931 7.57843 9.73633 7.98893 9.99746 8.4856" stroke="black" stroke-width="1.25" stroke-linecap="round" stroke-linejoin="round"/>
<path id="Vector_3" d="M17.8571 17.8571C17.8571 18.2359 17.7065 18.5994 17.4387 18.8672C17.1708 19.1351 16.8074 19.2857 16.4285 19.2857H3.57139C3.19251 19.2857 2.82915 19.1351 2.56124 18.8672C2.29334 18.5994 2.14282 18.2359 2.14282 17.8571V2.1428C2.14282 1.76392 2.29334 1.40056 2.56124 1.13265C2.82915 0.864743 3.19251 0.714233 3.57139 0.714233H12.8571L17.8571 5.71423V17.8571Z" stroke="black" stroke-width="1.25" stroke-linecap="round" stroke-linejoin="round"/>
<path id="Vector 2531" d="M5 12.1428H15" stroke="black" stroke-width="1.25" stroke-linecap="round"/>
<path id="Vector 2532" d="M5 15.7144H10.7143" stroke="black" stroke-width="1.25" stroke-linecap="round"/>
</g>
</g>
</svg>
