<svg width="20" height="20" viewBox="0 0 20 20" fill="none" xmlns="http://www.w3.org/2000/svg">
<g id="desktop-dollar--cash-desktop-display-device-notification-computer-money-currency" clip-path="url(#clip0_765_4529)">
<g id="desktop-dollar--cash-desktop-display-device-notification-computer-money-currency_2">
<path id="Vector" d="M11.0867 2.85706H1.42864C1.2392 2.85706 1.05752 2.93231 0.923565 3.06627C0.78961 3.20021 0.714355 3.3819 0.714355 3.57134V14.9999C0.714355 15.1893 0.78961 15.3711 0.923565 15.5051C1.05752 15.6389 1.2392 15.7142 1.42864 15.7142H18.5715C18.7609 15.7142 18.9426 15.6389 19.0766 15.5051C19.2105 15.3711 19.2858 15.1893 19.2858 14.9999V13.5713" stroke="black" stroke-width="1.25" stroke-linecap="round" stroke-linejoin="round"/>
<path id="Vector_2" d="M8.57139 15.7142L7.14282 19.2857" stroke="black" stroke-width="1.25" stroke-linecap="round" stroke-linejoin="round"/>
<path id="Vector_3" d="M11.4287 15.7142L12.8573 19.2857" stroke="black" stroke-width="1.25" stroke-linecap="round" stroke-linejoin="round"/>
<path id="Vector_4" d="M5.71436 19.2856H14.2858" stroke="black" stroke-width="1.25" stroke-linecap="round" stroke-linejoin="round"/>
<path id="Vector 3" d="M19.1775 3.88874C19.0939 3.65215 18.9649 3.43702 18.8009 3.25382C18.4522 2.86414 17.9453 2.6189 17.3812 2.6189H15.9067C14.9677 2.6189 14.2065 3.38013 14.2065 4.31915C14.2065 5.11817 14.7629 5.80938 15.5435 5.98012L17.7882 6.47117C18.6626 6.66245 19.2859 7.43737 19.2859 8.33248C19.2859 9.38445 18.4332 10.238 17.3812 10.238H16.1113C15.2819 10.238 14.5765 9.70791 14.3149 8.96811" stroke="black" stroke-width="1.25" stroke-linecap="round" stroke-linejoin="round"/>
<path id="Vector 2489" d="M16.7461 2.61899V0.714233" stroke="black" stroke-width="1.25" stroke-linecap="round" stroke-linejoin="round"/>
<path id="Vector 2490" d="M16.7461 12.1429V10.2382" stroke="black" stroke-width="1.25" stroke-linecap="round" stroke-linejoin="round"/>
</g>
</g>
<defs>
<clipPath id="clip0_765_4529">
<rect width="20" height="20" fill="white"/>
</clipPath>
</defs>
</svg>
