<svg width="20" height="20" viewBox="0 0 20 20" fill="none" xmlns="http://www.w3.org/2000/svg">
<g id="blood-donate-drop">
<g id="blood-donate-drop_2">
<path id="vector 2614" d="M4.3163 18.2143C4.3163 18.2143 2.88467 16.7827 1.58162 15.4796C1.04581 14.9438 0.744873 14.2171 0.744873 13.4594V7.49998C0.744873 6.71101 1.38447 6.07141 2.17344 6.07141C2.96242 6.07141 3.60201 6.71101 3.60201 7.49998V11.7857" stroke="black" stroke-width="1.25" stroke-linecap="round" stroke-linejoin="round"/>
<path id="vector 2616" d="M15.6833 18.2143C15.6833 18.2143 17.1151 16.7827 18.4181 15.4796C18.9539 14.9438 19.2548 14.2171 19.2548 13.4594V7.49998C19.2548 6.71101 18.6152 6.07141 17.8262 6.07141C17.0372 6.07141 16.3976 6.71101 16.3976 7.49998V11.7857" stroke="black" stroke-width="1.25" stroke-linecap="round" stroke-linejoin="round"/>
<path id="vector 2615" d="M4.90806 14.3975L3.89791 13.3873C3.34002 12.8294 3.34002 11.9249 3.89791 11.367C4.45581 10.8091 5.36032 10.8091 5.91822 11.367L7.76521 13.214C8.30102 13.7498 8.60205 14.4765 8.60205 15.2344V18.2142" stroke="black" stroke-width="1.25" stroke-linecap="round" stroke-linejoin="round"/>
<path id="vector 2617" d="M15.0917 14.3975L16.1018 13.3873C16.6597 12.8294 16.6597 11.9249 16.1018 11.367C15.544 10.8091 14.6394 10.8091 14.0815 11.367L12.2345 13.214C11.6987 13.7498 11.3977 14.4765 11.3977 15.2344V18.2142" stroke="black" stroke-width="1.25" stroke-linecap="round" stroke-linejoin="round"/>
</g>
</g>
</svg>
