<svg xmlns="http://www.w3.org/2000/svg" viewBox="0 0 70 70"><path d="m57.4 45.68-.8-.16v-4.68c0-3.87-3.15-7.02-7.02-7.02h-13.4v-9.33l.8-.16c4.61-.94 7.95-5.03 7.95-9.74 0-5.48-4.46-9.94-9.94-9.94s-9.94 4.46-9.94 9.94c0 4.7 3.34 8.8 7.95 9.74l.8.16v9.33H20.4c-3.87 0-7.02 3.15-7.02 7.02v4.68l-.8.16c-4.61.94-7.95 5.03-7.95 9.74 0 5.48 4.46 9.94 9.94 9.94s9.94-4.46 9.94-9.94c0-4.7-3.34-8.8-7.95-9.74l-.8-.16v-4.68c0-2.56 2.08-4.65 4.65-4.65h29.17c2.56 0 4.65 2.08 4.65 4.65v4.68l-.8.16c-4.61.94-7.95 5.03-7.95 9.74 0 5.48 4.46 9.94 9.94 9.94s9.94-4.46 9.94-9.94c0-4.7-3.34-8.8-7.95-9.74Zm-35.25 9.74c0 4.17-3.39 7.56-7.56 7.56s-7.56-3.39-7.56-7.56 3.39-7.56 7.56-7.56 7.56 3.39 7.56 7.56Zm5.29-40.84c0-4.17 3.39-7.56 7.56-7.56s7.56 3.39 7.56 7.56-3.39 7.56-7.56 7.56-7.56-3.39-7.56-7.56Zm27.98 48.4c-4.17 0-7.56-3.39-7.56-7.56s3.39-7.56 7.56-7.56 7.56 3.39 7.56 7.56-3.39 7.56-7.56 7.56Z"/></svg>
