<svg width="20" height="20" viewBox="0 0 20 20" fill="none" xmlns="http://www.w3.org/2000/svg">
<g id="outgoing-call--android-phone-mobile-device-smartphone-iphone-ringing-outgoing-call" clip-path="url(#clip0_765_4478)">
<g id="outgoing-call--android-phone-mobile-device-smartphone-iphone-ringing-outgoing-call_2">
<path id="Vector" d="M9.32794 18.3188C8.58737 18.7956 7.7059 19.0046 6.83006 18.9111C5.95423 18.8175 5.13679 18.4271 4.51366 17.8045L3.9708 17.2616C3.73001 17.0182 3.59497 16.6896 3.59497 16.3474C3.59497 16.0049 3.73001 15.6765 3.9708 15.4331L6.25651 13.1616C6.49747 12.9217 6.82364 12.787 7.16366 12.787C7.50367 12.787 7.82984 12.9217 8.0708 13.1616C8.31418 13.4024 8.64273 13.5375 8.98509 13.5375C9.32744 13.5375 9.65599 13.4024 9.89937 13.1616L13.5422 9.51876C13.783 9.27538 13.9181 8.94684 13.9181 8.60447C13.9181 8.26211 13.783 7.93357 13.5422 7.69018C13.3023 7.44924 13.1676 7.12307 13.1676 6.78304C13.1676 6.44303 13.3023 6.11686 13.5422 5.8759L15.7423 3.59018C15.9856 3.34941 16.3142 3.21436 16.6566 3.21436C16.9989 3.21436 17.3274 3.34941 17.5709 3.59018L18.1137 4.13304C18.7473 4.74738 19.1512 5.56047 19.2579 6.43663C19.3644 7.31277 19.1673 8.19897 18.6994 8.94733C16.2083 12.6456 13.0262 15.8278 9.32794 18.3188Z" stroke="black" stroke-width="1.25" stroke-linecap="round" stroke-linejoin="round"/>
<path id="Vector_2" d="M5.71436 0.714233H0.714355V5.71423" stroke="black" stroke-width="1.25" stroke-linecap="round" stroke-linejoin="round"/>
<path id="Vector_3" d="M0.714355 0.714233L7.85717 7.85705" stroke="black" stroke-width="1.25" stroke-linecap="round" stroke-linejoin="round"/>
</g>
</g>
<defs>
<clipPath id="clip0_765_4478">
<rect width="20" height="20" fill="white"/>
</clipPath>
</defs>
</svg>
