<svg width="20" height="20" viewBox="0 0 20 20" fill="none" xmlns="http://www.w3.org/2000/svg">
<g id="airport-plane" clip-path="url(#clip0_765_4518)">
<g id="airport-plane_2">
<path id="Vector" d="M4.75638 15.2437H2.68495C2.16712 15.2005 1.68441 14.9644 1.33255 14.582C0.980695 14.1997 0.7854 13.699 0.7854 13.1794C0.7854 12.6598 0.980695 12.1591 1.33255 11.7767C1.68441 11.3944 2.16712 11.1582 2.68495 11.1151H5.97067L8.08495 9.00081L2.28495 5.42938C1.83844 5.15335 1.51338 4.71808 1.37548 4.21158C1.23758 3.70506 1.29713 3.16509 1.54209 2.70081C1.65024 2.43509 1.81166 2.19435 2.01644 1.99345C2.22119 1.79254 2.46495 1.63571 2.73268 1.53264C3.00039 1.42956 3.28638 1.38243 3.57301 1.39416C3.85965 1.40588 4.14084 1.47621 4.39924 1.60081L11.9707 5.10081L15.6278 1.4008C16.0218 1.00677 16.5563 0.7854 17.1135 0.7854C17.6708 0.7854 18.2053 1.00677 18.5993 1.4008C18.9933 1.79484 19.2147 2.32926 19.2147 2.88652C19.2147 3.44376 18.9933 3.97819 18.5993 4.37224L14.8993 8.02938L18.3993 15.6723C18.5144 15.9267 18.5773 16.2018 18.584 16.4811C18.5908 16.7603 18.5415 17.0381 18.4388 17.298C18.3363 17.5577 18.1825 17.7943 17.9868 17.9935C17.791 18.1928 17.5573 18.3508 17.2993 18.458C16.835 18.703 16.295 18.7624 15.7885 18.6245C15.282 18.4867 14.8467 18.1615 14.5707 17.7151L10.9992 11.9151L8.88495 14.0294V17.3151C8.84184 17.833 8.60568 18.3157 8.22331 18.6675C7.84094 19.0194 7.34029 19.2147 6.82066 19.2147C6.30105 19.2147 5.80039 19.0194 5.41804 18.6675C5.03566 18.3157 4.79949 17.833 4.75638 17.3151V15.2437Z" stroke="black" stroke-width="1.25" stroke-linecap="round" stroke-linejoin="round"/>
</g>
</g>
<defs>
<clipPath id="clip0_765_4518">
<rect width="20" height="20" fill="white"/>
</clipPath>
</defs>
</svg>
