<svg width="24" height="24" viewBox="0 0 24 24" fill="none" xmlns="http://www.w3.org/2000/svg">
<path d="M4 17H8.5C8.65525 17 8.80817 17.0362 8.94702 17.1056C9.08588 17.175 9.20666 17.2758 9.2998 17.4L11.2 20.59C11.2931 20.7142 11.4139 20.815 11.5527 20.8844C11.6916 20.9538 11.8448 20.99 12 20.99C12.1552 20.99 12.3082 20.9538 12.447 20.8844C12.5859 20.815 12.7067 20.7142 12.7998 20.59L14.7 17.4C14.7931 17.2758 14.9139 17.175 15.0527 17.1056C15.1916 17.0362 15.3448 17 15.5 17H20C20.5304 17 21.039 16.7893 21.4141 16.4142C21.7891 16.0391 22 15.5304 22 15V5C22 4.46957 21.7891 3.96083 21.4141 3.58575C21.039 3.21068 20.5304 3 20 3H4C3.46957 3 2.96077 3.21068 2.58569 3.58575C2.21062 3.96083 2 4.46957 2 5V15C2 15.5304 2.21062 16.0391 2.58569 16.4142C2.96077 16.7893 3.46957 17 4 17Z" stroke="#080808" stroke-width="2" stroke-linejoin="round"/>
<path d="M7.5 7.99023H16.5" stroke="#080808" stroke-width="2" stroke-miterlimit="10"/>
<path d="M7.5 11.9902H16.5" stroke="#080808" stroke-width="2" stroke-miterlimit="10"/>
</svg>
