<svg xmlns="http://www.w3.org/2000/svg" data-name="Layer 1" viewBox="0 0 70 70"><path d="m12.71 23.9 18.32 10.97a7.71 7.71 0 0 0 7.94 0L57.29 23.9a3.99 3.99 0 0 0 1.87-2.46c.27-1.04.13-2.13-.42-3.06-.35-.6-.85-1.1-1.45-1.45L38.97 5.96a7.71 7.71 0 0 0-7.94 0l-.76.46-17.56 10.51c-.94.54-1.6 1.42-1.87 2.46a4.04 4.04 0 0 0 .41 3.06c.35.6.85 1.11 1.46 1.46Zm.18-4.51c.19-.35.48-.63.83-.83l18.05-10.8.25-.15c.9-.53 1.93-.81 2.98-.81s2.08.28 2.98.81L56.3 18.57a2.11 2.11 0 0 1 .81 2.87c-.19.35-.48.63-.82.82l-18.3 10.96c-.91.53-1.94.81-2.98.81s-2.08-.28-2.98-.81L13.71 22.25a2.107 2.107 0 0 1-.81-2.87Z"/><path d="m57.29 31.52-1.13-.67-1.87 1.12 2 1.2c.33.18.62.47.81.81.27.49.34 1.07.18 1.61s-.51.99-1.01 1.27l-18.3 10.96c-.91.53-1.94.81-2.98.81s-2.08-.28-2.98-.81L13.69 36.85c-.33-.18-.62-.47-.81-.82-.27-.49-.34-1.07-.18-1.61.16-.54.51-.99 1.01-1.27l1.99-1.19-1.87-1.12-1.12.67A4.052 4.052 0 0 0 10.7 35c0 1.43.77 2.76 2 3.48l18.32 10.96a7.71 7.71 0 0 0 7.94 0l18.32-10.97c.61-.35 1.11-.86 1.46-1.46 1.12-1.92.47-4.39-1.45-5.51Z"/><path d="m57.29 46.1-1.13-.67-1.87 1.12 2 1.2c.33.18.62.47.81.81.27.49.34 1.07.18 1.61s-.51.99-1.01 1.27L37.97 62.4c-.91.53-1.94.81-2.98.81s-2.08-.28-2.98-.81L13.69 51.43c-.33-.18-.62-.47-.81-.82-.27-.49-.34-1.07-.18-1.61.16-.54.51-.99 1.01-1.27l1.99-1.19-1.87-1.12-1.12.67a4.052 4.052 0 0 0-2.01 3.49c0 1.43.77 2.76 2 3.48l18.32 10.96a7.71 7.71 0 0 0 7.94 0l18.32-10.97c.61-.35 1.11-.86 1.46-1.46 1.12-1.92.47-4.39-1.45-5.51Z"/></svg>
