<svg width="20" height="20" viewBox="0 0 20 20" fill="none" xmlns="http://www.w3.org/2000/svg">
<g id="svg1908674742_2110" clip-path="url(#clip0_765_4448)">
<g id="Clip path group">
<mask id="mask0_765_4448" style="mask-type:luminance" maskUnits="userSpaceOnUse" x="0" y="0" width="20" height="20">
<g id="svg1908674742_2110_clip0_1355_170">
<path id="Vector" d="M20 0H0V20H20V0Z" fill="white"/>
</g>
</mask>
<g mask="url(#mask0_765_4448)">
<g id="Group">
<path id="Vector_2" d="M10 5.9375C9.19651 5.9375 8.41107 6.17576 7.743 6.62215C7.07492 7.06855 6.55422 7.70302 6.24674 8.44535C5.93926 9.18767 5.85881 10.0045 6.01556 10.7925C6.17231 11.5806 6.55922 12.3045 7.12737 12.8726C7.69552 13.4408 8.4194 13.8276 9.20745 13.9845C9.9955 14.1413 10.8123 14.0607 11.5546 13.7532C12.297 13.4457 12.9315 12.9251 13.3779 12.257C13.8242 11.5889 14.0625 10.8035 14.0625 10" stroke="black" stroke-width="1.25" stroke-linecap="round" stroke-linejoin="round"/>
<path id="Vector_3" d="M10.8335 2.54591C9.28854 2.37258 7.72791 2.68365 6.36749 3.43605C5.00705 4.18846 3.91406 5.34504 3.23969 6.7458C2.56531 8.14655 2.3429 9.72225 2.6032 11.2549C2.86351 12.7877 3.59367 14.2016 4.69269 15.3011C5.7917 16.4007 7.20526 17.1316 8.73781 17.3927C10.2704 17.6537 11.8462 17.4321 13.2473 16.7584C14.6483 16.0848 15.8054 14.9923 16.5586 13.6323C17.3117 12.2722 17.6236 10.7118 17.4509 9.16675" stroke="black" stroke-width="1.25" stroke-linecap="round" stroke-linejoin="round"/>
<path id="Vector_4" d="M12.6171 4.88292C12.5739 4.92616 12.5523 4.94778 12.5369 4.97301C12.5231 4.99538 12.513 5.01977 12.5069 5.04527C12.5 5.07405 12.5 5.10462 12.5 5.16577V7.10008C12.5 7.2401 12.5 7.31011 12.5273 7.36358C12.5513 7.41062 12.5895 7.44887 12.6365 7.47283C12.69 7.50008 12.76 7.50008 12.9 7.50008H14.8344C14.8955 7.50008 14.926 7.50008 14.9548 7.49317C14.9804 7.48705 15.0047 7.47695 15.0271 7.46325C15.0522 7.44778 15.0739 7.42616 15.1171 7.38292L16.8171 5.68292C17.0314 5.46873 17.1385 5.36165 17.1456 5.2697C17.152 5.18992 17.1196 5.11196 17.0588 5.05998C16.9886 5.00008 16.8372 5.00008 16.5344 5.00008H15.4C15.26 5.00008 15.19 5.00008 15.1365 4.97283C15.0895 4.94887 15.0512 4.91062 15.0273 4.86358C15 4.81011 15 4.7401 15 4.60008V3.46577C15 3.16286 15 3.01141 14.9401 2.94127C14.8881 2.88042 14.8101 2.84813 14.7304 2.85441C14.6385 2.86165 14.5314 2.96873 14.3171 3.18292L12.6171 4.88292Z" fill="black"/>
<path id="Vector_5" d="M13.75 6.25L10 9.99979" stroke="black" stroke-width="1.375" stroke-linecap="round" stroke-linejoin="round"/>
</g>
</g>
</g>
</g>
<defs>
<clipPath id="clip0_765_4448">
<rect width="20" height="20" fill="white"/>
</clipPath>
</defs>
</svg>
