<svg width="20" height="20" viewBox="0 0 20 20" fill="none" xmlns="http://www.w3.org/2000/svg">
<g id="transfer-van--van-shipping-delivery-transfer">
<g id="transfer-van--van-shipping-delivery-transfer_2">
<path id="Rectangle 53" d="M13.0839 15.5568V5.86314C13.0839 5.07416 12.4444 4.43457 11.6554 4.43457H2.43199C1.64301 4.43457 1.00342 5.07416 1.00342 5.86314V15.3284C1.00342 16.1174 1.64301 16.7569 2.43199 16.7569H3.50341" stroke="black" stroke-width="1.25" stroke-linecap="round" stroke-linejoin="round"/>
<path id="Vector 881" d="M18.9966 11.1951H13.0859" stroke="black" stroke-width="1.25" stroke-linecap="round" stroke-linejoin="round"/>
<path id="Vector 880" d="M17.0741 16.4903H17.5665C18.3555 16.4903 18.9951 15.8507 18.9951 15.0617V10.7747L17.006 6.702C16.7664 6.21149 16.2683 5.90039 15.7223 5.90039H13.3416" stroke="black" stroke-width="1.25" stroke-linecap="round" stroke-linejoin="round"/>
<path id="Ellipse 55" d="M5.5685 18.7942C6.66992 18.7942 7.56279 17.9014 7.56279 16.7999C7.56279 15.6985 6.66992 14.8057 5.5685 14.8057C4.46709 14.8057 3.57422 15.6985 3.57422 16.7999C3.57422 17.9014 4.46709 18.7942 5.5685 18.7942Z" stroke="black" stroke-width="1.25" stroke-linecap="round" stroke-linejoin="round"/>
<path id="Ellipse 56" d="M14.6215 18.7942C15.7229 18.7942 16.6158 17.9014 16.6158 16.7999C16.6158 15.6985 15.7229 14.8057 14.6215 14.8057C13.5201 14.8057 12.6272 15.6985 12.6272 16.7999C12.6272 17.9014 13.5201 18.7942 14.6215 18.7942Z" stroke="black" stroke-width="1.25" stroke-linecap="round" stroke-linejoin="round"/>
<path id="Rectangle 54" d="M12.2531 16.7566H8.05664" stroke="black" stroke-width="1.25" stroke-linecap="round" stroke-linejoin="round"/>
</g>
</g>
</svg>
