<svg xmlns="http://www.w3.org/2000/svg" data-name="Layer 1" viewBox="0 0 70 70"><path d="M49.58 38.42h-5.83a.96.96 0 0 0 0 1.92h5.83a.952.952 0 0 0 .96-.96.96.96 0 0 0-.96-.96Zm-23.33 1.46h-5.83c-3.74 0-6.79 3.05-6.79 6.79a.96.96 0 0 0 1.92 0c0-2.69 2.19-4.87 4.87-4.88h5.83c2.69 0 4.87 2.19 4.88 4.87a.96.96 0 0 0 1.92 0c0-3.74-3.05-6.79-6.79-6.79Zm29.17-10.21H43.75a.96.96 0 0 0 0 1.92h11.67a.952.952 0 0 0 .96-.96.96.96 0 0 0-.96-.96Z"/><path d="M58.33 13.62H11.67c-3.74 0-6.79 3.05-6.79 6.79v29.17c0 3.74 3.05 6.79 6.79 6.79h46.67c3.74 0 6.79-3.05 6.79-6.79V20.41c0-3.74-3.05-6.79-6.79-6.79Zm4.88 35.96c0 2.69-2.19 4.87-4.87 4.88H11.67c-2.68 0-4.87-2.19-4.87-4.87V20.42c0-2.69 2.19-4.87 4.87-4.88h46.67c2.69 0 4.87 2.19 4.88 4.87v29.17Z"/><path d="M23.33 35.96c3.74 0 6.79-3.05 6.79-6.79s-3.05-6.79-6.79-6.79-6.79 3.05-6.79 6.79 3.05 6.79 6.79 6.79Zm0-11.67c2.69 0 4.88 2.19 4.88 4.88s-2.19 4.88-4.88 4.88-4.87-2.19-4.87-4.88 2.19-4.87 4.87-4.88Z"/></svg>
